<svg width="48" height="49" viewBox="0 0 48 49" fill="none" xmlns="http://www.w3.org/2000/svg">
<g clip-path="url(#clip0_2006_2511)">
<path d="M34.2892 32.1798L25.7144 34.2892V39.7166L32.6887 37.999L46.2858 42.2813V44.7289H48.0001V41.0224L34.2892 36.7066V32.1798ZM32.5749 34.3662V36.2613L27.4286 37.5302V35.6351L32.5749 34.3662Z" fill="black"/>
<path d="M9.17282 23.5045C7.9753 23.8144 6.70374 23.6359 5.63784 23.0082C4.57195 22.3806 3.79903 21.3553 3.48911 20.1578C3.17919 18.9603 3.35766 17.6887 3.98525 16.6228C4.61284 15.5569 5.63815 14.7839 6.83564 14.4739C7.26483 14.362 7.71316 14.3445 8.14978 14.4225C8.5864 14.5004 9.00095 14.672 9.36489 14.9255C9.72883 15.179 10.0335 15.5083 10.258 15.8908C10.4825 16.2733 10.6214 16.7001 10.6652 17.1414C10.7091 17.5828 10.6567 18.0284 10.5119 18.4476C10.367 18.8668 10.133 19.2496 9.82602 19.5697C9.51904 19.8898 9.14634 20.1396 8.73357 20.3019C8.32081 20.4642 7.87778 20.5352 7.43497 20.5099C6.96486 20.4838 6.52151 20.2827 6.19199 19.9464C5.86247 19.6101 5.67058 19.1628 5.65403 18.6922C5.63747 18.2217 5.79743 17.7619 6.10249 17.4032C6.40756 17.0446 6.83568 16.813 7.30279 16.7539C7.52832 16.7249 7.7561 16.7869 7.93604 16.9259C8.11597 17.0649 8.23332 17.2696 8.26227 17.4952C8.29122 17.7207 8.22941 17.9483 8.09042 18.1283C7.95144 18.3082 7.74666 18.4258 7.52114 18.4547C7.47865 18.4605 7.43982 18.4818 7.41222 18.5146C7.38462 18.5475 7.37023 18.5894 7.37185 18.6323C7.37347 18.6752 7.39098 18.7157 7.42097 18.7464C7.45096 18.777 7.49129 18.7954 7.5341 18.798C7.7297 18.8093 7.92541 18.7781 8.10777 18.7064C8.29013 18.6348 8.4548 18.5245 8.59045 18.3832C8.72609 18.2418 8.82949 18.0728 8.89353 17.8877C8.95756 17.7025 8.98071 17.5056 8.96137 17.3107C8.94204 17.1157 8.88068 16.9272 8.78153 16.7582C8.68237 16.5893 8.54778 16.4439 8.38701 16.3319C8.22623 16.22 8.04311 16.1441 7.85023 16.1097C7.65736 16.0753 7.45932 16.0831 7.26975 16.1326C6.51388 16.33 5.86719 16.8192 5.47155 17.4928C5.07591 18.1664 4.96365 18.9694 5.15938 19.7257C5.35512 20.482 5.84287 21.1297 6.51563 21.5268C7.18838 21.924 7.99119 22.0381 8.74792 21.844C8.96809 21.7876 9.20167 21.8208 9.39728 21.9365C9.5929 22.0523 9.73454 22.241 9.79106 22.4611C9.84758 22.6813 9.81435 22.915 9.69869 23.1106C9.58302 23.3063 9.39295 23.4479 9.17282 23.5045Z" fill="#671414"/>
<path d="M36.5565 14.585C36.9571 14.0478 37.466 13.601 38.0504 13.273C37.8581 12.4046 37.6019 11.5517 37.284 10.721C36.8037 9.46601 36.0693 8.32378 35.1268 7.36591C34.1844 6.40805 33.0543 5.65521 31.8073 5.15452C30.5603 4.65384 29.2233 4.41597 27.8802 4.45615C26.537 4.49632 25.2166 4.81353 24.0018 5.38784C22.7869 4.81352 21.4666 4.49632 20.1234 4.45615C18.7802 4.41597 17.4432 4.65364 16.1962 5.15432C14.9492 5.65501 13.8191 6.40804 12.8767 7.36591C11.9342 8.32378 11.1998 9.466 10.7195 10.721C10.4016 11.5517 10.1454 12.4046 9.95312 13.273C10.5375 13.601 11.0464 14.0478 11.447 14.585C11.6256 13.4741 11.9184 12.3845 12.3206 11.3337C12.7416 10.2337 13.3991 9.23972 14.2465 8.42178C15.094 7.60385 16.1108 6.98206 17.225 6.60031C18.3392 6.21856 19.5237 6.08619 20.6947 6.21256C21.8657 6.33894 22.9947 6.72103 24.0018 7.33171C25.0089 6.72104 26.1379 6.33893 27.3089 6.21256C28.4799 6.0862 29.6643 6.21856 30.7785 6.60031C31.8928 6.98206 32.9095 7.60385 33.757 8.42178C34.6045 9.23971 35.2619 10.2338 35.683 11.3337C36.0852 12.3845 36.3779 13.4741 36.5565 14.585Z" fill="#671414"/>
<path d="M38.8292 23.5045C40.0267 23.8144 41.2983 23.6359 42.3642 23.0082C43.4301 22.3806 44.203 21.3553 44.5129 20.1578C44.8228 18.9603 44.6444 17.6887 44.0168 16.6228C43.3892 15.5569 42.3639 14.7839 41.1664 14.4739C40.7372 14.362 40.2889 14.3445 39.8522 14.4225C39.4156 14.5004 39.0011 14.672 38.6371 14.9255C38.2732 15.179 37.9685 15.5083 37.744 15.8908C37.5196 16.2733 37.3806 16.7001 37.3368 17.1414C37.293 17.5828 37.3453 18.0284 37.4902 18.4476C37.635 18.8668 37.869 19.2496 38.176 19.5697C38.483 19.8898 38.8557 20.1396 39.2685 20.3019C39.6812 20.4642 40.1243 20.5352 40.5671 20.5099C41.0372 20.4838 41.4805 20.2827 41.81 19.9464C42.1396 19.6101 42.3314 19.1628 42.348 18.6922C42.3646 18.2217 42.2046 17.7619 41.8995 17.4032C41.5945 17.0446 41.1663 16.813 40.6992 16.7539C40.4737 16.7249 40.2459 16.7869 40.066 16.9259C39.8861 17.0649 39.7687 17.2696 39.7398 17.4952C39.7108 17.7207 39.7726 17.9483 39.9116 18.1283C40.0506 18.3082 40.2554 18.4258 40.4809 18.4547C40.5234 18.4605 40.5622 18.4818 40.5898 18.5146C40.6174 18.5475 40.6318 18.5894 40.6302 18.6323C40.6285 18.6752 40.611 18.7159 40.581 18.7466C40.551 18.7772 40.5107 18.7955 40.4679 18.798C40.2723 18.8093 40.0766 18.7781 39.8942 18.7064C39.7118 18.6348 39.5472 18.5245 39.4115 18.3832C39.2759 18.2418 39.1725 18.0728 39.1084 17.8877C39.0444 17.7025 39.0213 17.5056 39.0406 17.3107C39.0599 17.1157 39.1213 16.9272 39.2204 16.7582C39.3196 16.5893 39.4542 16.4439 39.615 16.3319C39.7757 16.22 39.9589 16.1441 40.1517 16.1097C40.3446 16.0753 40.5426 16.0831 40.7322 16.1326C41.4881 16.33 42.1348 16.8192 42.5304 17.4928C42.926 18.1664 43.0383 18.9694 42.8426 19.7257C42.6468 20.482 42.1591 21.1297 41.4863 21.5268C40.8136 21.924 40.0108 22.0381 39.254 21.844C39.0339 21.7876 38.8003 21.8208 38.6047 21.9365C38.4091 22.0523 38.2674 22.241 38.2109 22.4611C38.1544 22.6813 38.1876 22.915 38.3033 23.1106C38.4189 23.3063 38.6091 23.4479 38.8292 23.5045Z" fill="#671414"/>
<path d="M11.8128 29.4296C11.6309 29.8958 11.357 30.3209 11.0075 30.6792C10.6579 31.0375 10.24 31.3217 9.77835 31.5152C9.31674 31.7087 8.82093 31.8074 8.32041 31.8055C7.81988 31.8035 7.32486 31.7008 6.86478 31.5037C6.40471 31.3066 5.98896 31.0191 5.64228 30.658C5.29559 30.297 5.02505 29.87 4.84672 29.4023C4.6684 28.9346 4.58594 28.4359 4.60425 27.9357C4.62256 27.4355 4.74126 26.9441 4.95331 26.4907C5.03421 26.3194 5.14852 26.166 5.28952 26.0395C5.43052 25.913 5.59537 25.8159 5.7744 25.754C5.95342 25.6921 6.14302 25.6665 6.33206 25.6789C6.52109 25.6912 6.70576 25.7411 6.87522 25.8258C7.04469 25.9104 7.19553 26.028 7.3189 26.1718C7.44226 26.3156 7.53567 26.4826 7.59364 26.6629C7.6516 26.8433 7.67295 27.0334 7.65645 27.2221C7.63994 27.4108 7.5859 27.5944 7.4975 27.7619C7.4542 27.8433 7.3913 27.9128 7.31449 27.9638C7.23767 28.0148 7.14936 28.0458 7.05752 28.0542C6.96568 28.0625 6.8732 28.048 6.78844 28.0117C6.70368 27.9753 6.62929 27.9184 6.57201 27.8462C6.43065 27.6681 6.22437 27.5536 5.99854 27.5276C5.7727 27.5017 5.5458 27.5664 5.36774 27.7077C5.18969 27.8491 5.07506 28.0553 5.04906 28.2812C5.02306 28.507 5.08784 28.7338 5.22913 28.9119C5.4632 29.2073 5.76714 29.4396 6.11351 29.5881C6.45988 29.7366 6.83778 29.7966 7.2131 29.7625C7.58841 29.7285 7.94934 29.6014 8.2633 29.393C8.57726 29.1845 8.83437 28.9013 9.01143 28.5687C9.2077 28.199 9.32802 27.7938 9.3653 27.3769C9.40259 26.9601 9.35609 26.5401 9.22854 26.1415C9.10098 25.743 8.89496 25.3739 8.6226 25.0562C8.35024 24.7385 8.01705 24.4784 7.64266 24.2914C7.26826 24.1044 6.86023 23.9942 6.4426 23.9673C6.02497 23.9404 5.60618 23.9973 5.2109 24.1348C4.81562 24.2722 4.45184 24.4875 4.14099 24.7677C3.83013 25.0479 3.5785 25.3873 3.40089 25.7663C3.09066 26.428 2.91675 27.1455 2.88952 27.8758C2.8623 28.6061 2.9823 29.3344 3.2424 30.0174C3.50249 30.7004 3.89736 31.3241 4.40349 31.8513C4.90962 32.3786 5.51666 32.7986 6.18847 33.0863C6.86028 33.3741 7.58313 33.5237 8.31396 33.5263C9.0448 33.5289 9.76869 33.3843 10.4425 33.1014C11.1164 32.8184 11.7264 32.4028 12.2362 31.8792C12.7461 31.3556 13.1454 30.7347 13.4104 30.0536C15.2649 25.2904 16.2878 20.244 16.4346 15.1346C16.4561 14.3843 16.6827 13.6543 17.0898 13.0237C17.4968 12.393 18.0688 11.8858 18.7437 11.5571C19.4185 11.2284 20.1705 11.0909 20.918 11.1593C21.6655 11.2277 22.38 11.4994 22.984 11.9451C23.2788 12.1625 23.6355 12.2798 24.0018 12.2798C24.3681 12.2798 24.7248 12.1625 25.0196 11.9451C25.6236 11.4994 26.3381 11.2277 27.0856 11.1593C27.8331 11.0909 28.5851 11.2284 29.26 11.5571C29.9348 11.8858 30.5068 12.393 30.9138 13.0237C31.3209 13.6543 31.5475 14.3843 31.569 15.1346C31.7158 20.244 32.7387 25.2904 34.5933 30.0536C34.8582 30.7347 35.2575 31.3556 35.7674 31.8792C36.2772 32.4028 36.8873 32.8184 37.5611 33.1014C38.2349 33.3843 38.9588 33.5289 39.6897 33.5263C40.4205 33.5237 41.1433 33.3741 41.8152 33.0863C42.487 32.7986 43.094 32.3786 43.6001 31.8513C44.1063 31.3241 44.5011 30.7004 44.7612 30.0174C45.0213 29.3344 45.1413 28.6061 45.1141 27.8758C45.0869 27.1455 44.913 26.428 44.6027 25.7663C44.4251 25.3873 44.1735 25.0479 43.8626 24.7677C43.5518 24.4875 43.188 24.2722 42.7927 24.1348C42.3974 23.9974 41.9787 23.9404 41.561 23.9673C41.1434 23.9942 40.7354 24.1044 40.361 24.2914C39.9866 24.4784 39.6534 24.7385 39.381 25.0562C39.1087 25.3739 38.9027 25.743 38.7751 26.1415C38.6475 26.5401 38.601 26.9601 38.6383 27.3769C38.6756 27.7938 38.7959 28.199 38.9922 28.5687C39.1693 28.9013 39.4264 29.1845 39.7403 29.393C40.0543 29.6014 40.4152 29.7285 40.7905 29.7625C41.1658 29.7966 41.5437 29.7366 41.8901 29.5881C42.2365 29.4396 42.5404 29.2073 42.7745 28.9119C42.9158 28.7338 42.9806 28.507 42.9546 28.2812C42.9286 28.0553 42.8139 27.8491 42.6359 27.7077C42.4578 27.5664 42.2309 27.5017 42.0051 27.5276C41.7792 27.5536 41.573 27.6681 41.4316 27.8462C41.3743 27.9184 41.2999 27.9753 41.2152 28.0117C41.1304 28.048 41.0379 28.0625 40.9461 28.0542C40.8543 28.0458 40.7659 28.0148 40.6891 27.9638C40.6123 27.9128 40.5494 27.8433 40.5061 27.7619C40.4177 27.5944 40.3637 27.4108 40.3472 27.2221C40.3307 27.0334 40.352 26.8433 40.41 26.6629C40.468 26.4826 40.5614 26.3156 40.6847 26.1718C40.8081 26.028 40.9589 25.9104 41.1284 25.8258C41.2979 25.7411 41.4825 25.6912 41.6716 25.6789C41.8606 25.6665 42.0502 25.6921 42.2292 25.754C42.4083 25.8159 42.5731 25.913 42.7141 26.0395C42.8551 26.166 42.9694 26.3194 43.0503 26.4907C43.2624 26.9441 43.3811 27.4355 43.3994 27.9357C43.4177 28.4359 43.3352 28.9346 43.1569 29.4023C42.9786 29.87 42.708 30.297 42.3613 30.658C42.0147 31.0191 41.5989 31.3066 41.1388 31.5037C40.6788 31.7008 40.1837 31.8035 39.6832 31.8055C39.1827 31.8074 38.6869 31.7087 38.2253 31.5152C37.7637 31.3217 37.3457 31.0375 36.9962 30.6792C36.6467 30.3209 36.3728 29.8958 36.1908 29.4296C34.4073 24.849 33.4237 19.9963 33.2826 15.0828C33.252 14.0196 32.9309 12.985 32.3541 12.0914C31.7773 11.1977 30.9668 10.4792 30.0105 10.0134C29.0543 9.54772 27.9887 9.35263 26.9295 9.44952C25.8702 9.54641 24.8578 9.93145 24.0018 10.5629C23.1459 9.93143 22.1334 9.54642 21.0742 9.44952C20.015 9.35262 18.9494 9.54752 17.9931 10.0132C17.0368 10.479 16.2263 11.1977 15.6495 12.0914C15.0727 12.985 14.7516 14.0196 14.721 15.0828C14.58 19.9963 13.5963 24.849 11.8128 29.4296Z" fill="#671414"/>
<path d="M13.711 32.1798V36.7066L0 41.0224V44.7289H1.71429V42.2813L15.3114 37.999L22.2858 39.7166V34.2892L13.711 32.1798ZM15.4253 34.3662L20.5715 35.6351V37.5302L15.4253 36.2613V34.3662Z" fill="black"/>
</g>
<defs>
<clipPath id="clip0_2006_2511">
<rect width="48" height="48" fill="white" transform="translate(0.000976562 0.589966)"/>
</clipPath>
</defs>
</svg>
