<svg width="48" height="49" viewBox="0 0 48 49" fill="none" xmlns="http://www.w3.org/2000/svg">
<g clip-path="url(#clip0_2006_958)">
<path d="M10.4531 43.4851C10.2408 43.4851 10.0373 43.5694 9.88716 43.7195C9.73705 43.8696 9.65272 44.0732 9.65272 44.2855C9.65272 44.3906 9.67342 44.4947 9.71364 44.5918C9.75386 44.6889 9.81282 44.7772 9.88715 44.8515C9.96147 44.9258 10.0497 44.9848 10.1468 45.025C10.2439 45.0652 10.348 45.0859 10.4531 45.0859H20.8644C21.0767 45.0859 21.2803 45.0016 21.4304 44.8515C21.5805 44.7014 21.6648 44.4978 21.6648 44.2855C21.6648 44.0732 21.5805 43.8696 21.4304 43.7195C21.2803 43.5694 21.0767 43.4851 20.8644 43.4851H10.4531Z" fill="black"/>
<path d="M31.8252 41.4134C31.613 41.4134 31.4094 41.4978 31.2593 41.6479C31.1092 41.798 31.0249 42.0016 31.0249 42.2138C31.0249 42.319 31.0456 42.423 31.0858 42.5202C31.126 42.6173 31.1849 42.7055 31.2593 42.7798C31.3336 42.8542 31.4218 42.9131 31.5189 42.9534C31.616 42.9936 31.7201 43.0143 31.8252 43.0143H37.9503C38.0554 43.0143 38.1595 42.9936 38.2566 42.9534C38.3537 42.9132 38.442 42.8542 38.5163 42.7799C38.5906 42.7055 38.6496 42.6173 38.6898 42.5202C38.73 42.4231 38.7507 42.319 38.7507 42.2138C38.7507 42.0016 38.6664 41.798 38.5163 41.6479C38.3662 41.4978 38.1626 41.4134 37.9503 41.4134H31.8252Z" fill="black"/>
<path fill-rule="evenodd" clip-rule="evenodd" d="M12.2355 23.2622H8.70707C8.52196 23.2622 8.34258 23.3264 8.19946 23.4438C8.05633 23.5611 7.95832 23.7245 7.92209 23.906L4.91161 38.9947C4.90905 39.0233 4.90804 39.0521 4.90859 39.0809C4.9035 39.1042 4.89947 39.1277 4.89648 39.1514V47.3482C4.89651 47.5605 4.98085 47.764 5.13097 47.9141C5.28108 48.0642 5.48467 48.1486 5.69696 48.1486H42.7101C42.9224 48.1486 43.1259 48.0642 43.2761 47.9141C43.4262 47.764 43.5105 47.5604 43.5105 47.3482V39.1514L43.5088 39.1423C43.5083 39.0932 43.5032 39.0443 43.4937 38.9962L40.4832 23.9075C40.4469 23.726 40.3489 23.5627 40.2058 23.4453C40.0627 23.3279 39.8833 23.2637 39.6982 23.2637H18.0735L18.0745 24.863H39.0427L41.7339 38.3508H6.67246L9.36354 24.863H12.2355V23.2622ZM41.9079 39.9517H6.49555V46.5477H41.9079V39.9517Z" fill="black"/>
<path fill-rule="evenodd" clip-rule="evenodd" d="M24.1052 26.922C24.1052 26.922 24.9864 26.6051 26.1372 26.6142C26.1744 26.6145 26.2116 26.6151 26.2494 26.6161C26.9725 26.6352 27.7915 26.7874 28.561 27.2254C30.1035 28.1034 30.7407 29.7329 30.9622 30.488C31.2517 30.1824 31.5948 29.8991 32.0008 29.668C32.7703 29.2299 33.5892 29.0768 34.3123 29.0587C35.5175 29.0268 36.4565 29.3646 36.4565 29.3646C36.6461 29.4252 36.8062 29.5542 36.9058 29.7264C37.0054 29.8987 37.0373 30.1019 36.9952 30.2964C36.9952 30.2964 36.545 32.7946 34.493 33.9626C33.2918 34.6462 31.9708 34.6332 31.0813 34.5052V35.9462C31.0813 36.0513 31.0606 36.1554 31.0204 36.2525C30.9801 36.3496 30.9212 36.4378 30.8468 36.5121C30.7725 36.5865 30.6843 36.6454 30.5872 36.6856C30.49 36.7259 30.386 36.7465 30.2808 36.7465C30.0686 36.7465 29.865 36.6622 29.7149 36.5121C29.5648 36.362 29.4805 36.1584 29.4805 35.9462V32.0626C28.5909 32.1908 27.2699 32.2037 26.0687 31.52C24.0168 30.352 23.5665 27.8538 23.5665 27.8538C23.5244 27.6593 23.5562 27.4561 23.6558 27.2838C23.7554 27.1115 23.9156 26.9825 24.1052 26.922ZM26.2243 28.2568C26.188 28.256 26.1517 28.2558 26.116 28.256C25.8653 28.257 25.6309 28.2777 25.4185 28.3019C25.6865 28.9151 26.1486 29.7245 26.8592 30.129C27.5745 30.536 28.5302 30.523 29.208 30.4438C28.94 29.8306 28.478 29.0212 27.7674 28.6167C27.3084 28.3554 26.7468 28.2659 26.2243 28.2568ZM35.1402 30.7443C34.9277 30.7197 34.6936 30.6996 34.4428 30.6986C34.4071 30.6985 34.3707 30.6985 34.3344 30.6992C33.8118 30.7086 33.2503 30.7977 32.7913 31.0591C32.0807 31.4635 31.6188 32.273 31.3508 32.8861C32.0286 32.9654 32.9843 32.9784 33.6997 32.5712C34.4102 32.1668 34.8721 31.3573 35.1402 30.7443Z" fill="#671414"/>
<path fill-rule="evenodd" clip-rule="evenodd" d="M13.0181 0.342041C12.8058 0.342065 12.6022 0.426409 12.4521 0.576523C12.302 0.726637 12.2177 0.930227 12.2177 1.14251V3.66236H5.02252C4.81025 3.66239 4.60669 3.74673 4.45659 3.89683C4.3065 4.04693 4.22217 4.2505 4.22214 4.46277V18.8784C4.22217 19.0907 4.3065 19.2942 4.45659 19.4443C4.60669 19.5944 4.81025 19.6788 5.02252 19.6788H12.2177V28.5933H11.7172C11.6121 28.5933 11.508 28.614 11.4109 28.6543C11.3138 28.6945 11.2256 28.7535 11.1512 28.8278C11.0769 28.9021 11.018 28.9903 10.9777 29.0875C10.9375 29.1846 10.9168 29.2887 10.9168 29.3938C10.9168 29.6061 11.0011 29.8096 11.1512 29.9597C11.3014 30.1098 11.5049 30.1942 11.7172 30.1942H18.557C18.7693 30.1942 18.9729 30.1098 19.123 29.9597C19.2731 29.8096 19.3574 29.6061 19.3575 29.3938C19.3575 29.2887 19.3368 29.1846 19.2965 29.0875C19.2563 28.9903 19.1974 28.9021 19.123 28.8278C19.0487 28.7535 18.9605 28.6945 18.8634 28.6543C18.7662 28.614 18.6622 28.5933 18.557 28.5933H18.0567L18.0557 19.6803H25.2508C25.463 19.6803 25.6666 19.5959 25.8167 19.4458C25.9668 19.2957 26.0512 19.0922 26.0512 18.8799V4.46428C26.0512 4.25201 25.9668 4.04843 25.8167 3.89833C25.6666 3.74823 25.463 3.6639 25.2508 3.66387H18.0557V1.14402C18.0557 0.931729 17.9713 0.72813 17.8212 0.578014C17.6711 0.427899 17.4675 0.343561 17.2552 0.343554L13.0181 0.342041ZM16.4558 19.6788H13.8185V28.5933H16.4558V19.6788ZM5.82293 5.26321H24.4513V18.078H5.82293V5.26321ZM16.4558 1.94289H13.8185V3.66236H16.4558V1.94289Z" fill="#671414"/>
</g>
<defs>
<clipPath id="clip0_2006_958">
<rect width="40.2857" height="48" fill="white" transform="translate(3.8584 0.179932)"/>
</clipPath>
</defs>
</svg>
