<svg width="48" height="49" viewBox="0 0 48 49" fill="none" xmlns="http://www.w3.org/2000/svg">
<g clip-path="url(#clip0_2006_855)">
<mask id="path-1-outside-1_2006_855" maskUnits="userSpaceOnUse" x="4.00342" y="0.168457" width="31" height="33" fill="black">
<rect fill="white" x="4.00342" y="0.168457" width="31" height="33"/>
<path d="M12.1387 1.33646C11.8371 1.16355 11.4913 1.12937 11.1837 1.2098C10.872 1.29223 10.5926 1.4973 10.4197 1.79486L5.26855 10.7177C5.09565 11.0193 5.05946 11.3631 5.14189 11.6707C5.22433 11.9823 5.42739 12.2638 5.72695 12.4367L7.73345 13.5808C7.99684 13.6913 8.28233 13.7054 8.54369 13.6371C8.76284 13.5787 8.96792 13.4601 9.13076 13.2892L10.8357 14.2744C10.9503 14.3408 11.0488 14.4172 11.1313 14.5036C11.2137 14.5881 11.2841 14.6906 11.3444 14.8092L15.1825 22.3104C15.2247 22.3929 15.287 22.4632 15.3695 22.5155L17.8967 24.0737L18.0093 24.138C17.9832 24.2828 17.9611 24.4275 17.943 24.5723C17.9088 24.8618 17.8907 25.1553 17.8907 25.4469C17.8907 27.4594 18.707 29.283 20.0279 30.6042C21.3508 31.9251 23.1744 32.7434 25.1867 32.7434C27.1993 32.7434 29.0208 31.9271 30.342 30.6062C31.6649 29.2812 32.4811 27.4597 32.4811 25.4473C32.4811 25.0714 32.451 24.6994 32.3967 24.3375C32.3726 24.1707 32.3404 24.0038 32.3022 23.8389C32.4208 23.8068 32.5354 23.7645 32.646 23.7143C32.9436 23.5755 33.213 23.3725 33.4382 23.1091C33.6654 22.8437 33.8262 22.5482 33.9167 22.2325C34.0072 21.9148 34.0273 21.5811 33.975 21.2353L32.8209 13.7562C32.7023 12.9841 32.4309 12.2885 32.0228 11.6853C31.6106 11.0801 31.0637 10.5715 30.3942 10.1754L25.4744 7.26617C25.2834 7.15559 25.1044 7.06109 24.9215 6.98268C24.7345 6.90025 24.5435 6.83189 24.3384 6.77157L14.573 3.87438C14.6454 3.64317 14.6474 3.39989 14.5891 3.1747C14.5067 2.86508 14.3036 2.58362 14.0041 2.41068L12.1423 1.33506L12.1387 1.33646ZM19.0025 24.4216C19.1473 24.4297 19.2941 24.4216 19.4368 24.4015C19.9535 24.3291 20.4481 24.0798 20.8362 23.6656C21.2644 23.2052 21.4755 22.6181 21.4715 22.0391C21.4675 21.5807 21.3288 21.1243 21.0573 20.7342C21.56 20.2939 22.135 19.932 22.7623 19.6686C23.5062 19.357 24.3245 19.1841 25.183 19.1841C25.8062 19.1841 26.4054 19.2746 26.9663 19.4394C27.493 19.5942 27.9957 19.8214 28.4561 20.1029L29.2865 22.3648C29.4594 22.8352 29.7589 23.2253 30.143 23.4987C30.4667 23.7279 30.8467 23.8747 31.2588 23.9149C31.3071 24.1039 31.3453 24.2969 31.3755 24.4919C31.4237 24.8036 31.4478 25.1233 31.4478 25.449C31.4478 27.18 30.7461 28.7462 29.6142 29.8782C28.4803 31.0121 26.9141 31.7138 25.181 31.7138C23.4499 31.7138 21.8837 31.0121 20.7497 29.8802C19.6178 28.7463 18.9161 27.18 18.9161 25.449C18.9161 25.1896 18.9322 24.9383 18.9603 24.695C18.9704 24.6025 18.9844 24.5121 18.9985 24.4216L19.0025 24.4216ZM20.3616 19.9783L20.0379 19.6506L18.6306 16.3392C18.5542 16.1603 18.518 15.9773 18.522 15.8004C18.526 15.6275 18.5702 15.4485 18.6567 15.2676C18.7411 15.0906 18.8537 14.9419 18.9864 14.8293C19.1211 14.7147 19.286 14.6302 19.473 14.5759L20.9809 14.1457C21.5056 13.9969 22.0063 13.9909 22.5028 14.0693C23.0236 14.1517 23.5644 14.3327 24.1294 14.5377L25.4001 14.9982C25.8484 15.161 26.2345 15.4023 26.5461 15.7119C26.8557 16.0195 27.099 16.4055 27.2639 16.8539L27.9394 18.6935C27.7162 18.6031 27.4891 18.5226 27.2558 18.4543C26.5964 18.2593 25.8987 18.1527 25.183 18.1527C24.1858 18.1527 23.2327 18.3538 22.3642 18.7197C21.6283 19.0293 20.9508 19.4576 20.3597 19.9783L20.3616 19.9783ZM9.6734 12.4205L14.0725 4.79828L24.0427 7.7578C24.2116 7.80807 24.3664 7.86436 24.5092 7.92669C24.658 7.99102 24.8007 8.06541 24.9495 8.15187L29.8693 11.0611C30.4081 11.3808 30.8464 11.7869 31.1701 12.2614C31.4918 12.7399 31.7069 13.2948 31.8014 13.914L32.9555 21.3952C32.9856 21.5942 32.9756 21.7832 32.9273 21.9541C32.8791 22.127 32.7866 22.2939 32.6579 22.4427C32.5272 22.5935 32.3785 22.7081 32.2156 22.7845C32.0527 22.8588 31.8678 22.897 31.6667 22.897H31.4878C31.2043 22.897 30.9469 22.8126 30.7379 22.6638C30.5227 22.511 30.3518 22.2858 30.2513 22.0124L28.2267 16.5015C28.0096 15.9105 27.6858 15.3998 27.2677 14.9836C26.8495 14.5674 26.3388 14.2477 25.7477 14.0326L24.477 13.5722C23.8638 13.351 23.2727 13.154 22.6595 13.0575C22.0222 12.9569 21.3768 12.965 20.6972 13.158L19.1893 13.5882C18.8596 13.6827 18.5681 13.8376 18.3207 14.0466C18.0734 14.2557 17.8724 14.5191 17.7256 14.8267C17.5789 15.1343 17.5025 15.456 17.4944 15.7817C17.4884 16.1034 17.5507 16.4271 17.6834 16.7408L19.129 20.1426C19.1572 20.209 19.1974 20.2673 19.2476 20.3135C19.5211 20.591 19.7965 20.8704 20.07 21.1479C20.3152 21.3972 20.4419 21.7209 20.4439 22.0466C20.4459 22.3723 20.3273 22.7041 20.082 22.9655C19.8629 23.2027 19.5814 23.3435 19.2939 23.3837C19.0064 23.4239 18.7008 23.3636 18.4334 23.1987L16.0288 21.7189L12.257 14.3443C12.1525 14.1392 12.0258 13.9583 11.875 13.7995C11.7242 13.6386 11.5493 13.5039 11.3483 13.3873L9.6734 12.4205ZM8.42083 12.5411C8.38866 12.5954 8.3384 12.6316 8.28009 12.6477C8.21977 12.6637 8.15543 12.6577 8.10115 12.6255L6.24138 11.5519C6.1871 11.5198 6.15091 11.4675 6.13483 11.4112C6.11874 11.3529 6.12477 11.2886 6.15694 11.2343L11.3101 2.31143C11.3423 2.25715 11.3946 2.21895 11.4508 2.20488C11.5092 2.18879 11.5735 2.19482 11.6278 2.22498L13.4996 3.30667C13.5478 3.33884 13.582 3.3871 13.5961 3.44138C13.6122 3.49969 13.6061 3.56402 13.574 3.61831C11.859 6.59188 10.1379 9.56772 8.42287 12.5411L8.42083 12.5411Z"/>
</mask>
<path d="M12.1387 1.33646C11.8371 1.16355 11.4913 1.12937 11.1837 1.2098C10.872 1.29223 10.5926 1.4973 10.4197 1.79486L5.26855 10.7177C5.09565 11.0193 5.05946 11.3631 5.14189 11.6707C5.22433 11.9823 5.42739 12.2638 5.72695 12.4367L7.73345 13.5808C7.99684 13.6913 8.28233 13.7054 8.54369 13.6371C8.76284 13.5787 8.96792 13.4601 9.13076 13.2892L10.8357 14.2744C10.9503 14.3408 11.0488 14.4172 11.1313 14.5036C11.2137 14.5881 11.2841 14.6906 11.3444 14.8092L15.1825 22.3104C15.2247 22.3929 15.287 22.4632 15.3695 22.5155L17.8967 24.0737L18.0093 24.138C17.9832 24.2828 17.9611 24.4275 17.943 24.5723C17.9088 24.8618 17.8907 25.1553 17.8907 25.4469C17.8907 27.4594 18.707 29.283 20.0279 30.6042C21.3508 31.9251 23.1744 32.7434 25.1867 32.7434C27.1993 32.7434 29.0208 31.9271 30.342 30.6062C31.6649 29.2812 32.4811 27.4597 32.4811 25.4473C32.4811 25.0714 32.451 24.6994 32.3967 24.3375C32.3726 24.1707 32.3404 24.0038 32.3022 23.8389C32.4208 23.8068 32.5354 23.7645 32.646 23.7143C32.9436 23.5755 33.213 23.3725 33.4382 23.1091C33.6654 22.8437 33.8262 22.5482 33.9167 22.2325C34.0072 21.9148 34.0273 21.5811 33.975 21.2353L32.8209 13.7562C32.7023 12.9841 32.4309 12.2885 32.0228 11.6853C31.6106 11.0801 31.0637 10.5715 30.3942 10.1754L25.4744 7.26617C25.2834 7.15559 25.1044 7.06109 24.9215 6.98268C24.7345 6.90025 24.5435 6.83189 24.3384 6.77157L14.573 3.87438C14.6454 3.64317 14.6474 3.39989 14.5891 3.1747C14.5067 2.86508 14.3036 2.58362 14.0041 2.41068L12.1423 1.33506L12.1387 1.33646ZM19.0025 24.4216C19.1473 24.4297 19.2941 24.4216 19.4368 24.4015C19.9535 24.3291 20.4481 24.0798 20.8362 23.6656C21.2644 23.2052 21.4755 22.6181 21.4715 22.0391C21.4675 21.5807 21.3288 21.1243 21.0573 20.7342C21.56 20.2939 22.135 19.932 22.7623 19.6686C23.5062 19.357 24.3245 19.1841 25.183 19.1841C25.8062 19.1841 26.4054 19.2746 26.9663 19.4394C27.493 19.5942 27.9957 19.8214 28.4561 20.1029L29.2865 22.3648C29.4594 22.8352 29.7589 23.2253 30.143 23.4987C30.4667 23.7279 30.8467 23.8747 31.2588 23.9149C31.3071 24.1039 31.3453 24.2969 31.3755 24.4919C31.4237 24.8036 31.4478 25.1233 31.4478 25.449C31.4478 27.18 30.7461 28.7462 29.6142 29.8782C28.4803 31.0121 26.9141 31.7138 25.181 31.7138C23.4499 31.7138 21.8837 31.0121 20.7497 29.8802C19.6178 28.7463 18.9161 27.18 18.9161 25.449C18.9161 25.1896 18.9322 24.9383 18.9603 24.695C18.9704 24.6025 18.9844 24.5121 18.9985 24.4216L19.0025 24.4216ZM20.3616 19.9783L20.0379 19.6506L18.6306 16.3392C18.5542 16.1603 18.518 15.9773 18.522 15.8004C18.526 15.6275 18.5702 15.4485 18.6567 15.2676C18.7411 15.0906 18.8537 14.9419 18.9864 14.8293C19.1211 14.7147 19.286 14.6302 19.473 14.5759L20.9809 14.1457C21.5056 13.9969 22.0063 13.9909 22.5028 14.0693C23.0236 14.1517 23.5644 14.3327 24.1294 14.5377L25.4001 14.9982C25.8484 15.161 26.2345 15.4023 26.5461 15.7119C26.8557 16.0195 27.099 16.4055 27.2639 16.8539L27.9394 18.6935C27.7162 18.6031 27.4891 18.5226 27.2558 18.4543C26.5964 18.2593 25.8987 18.1527 25.183 18.1527C24.1858 18.1527 23.2327 18.3538 22.3642 18.7197C21.6283 19.0293 20.9508 19.4576 20.3597 19.9783L20.3616 19.9783ZM9.6734 12.4205L14.0725 4.79828L24.0427 7.7578C24.2116 7.80807 24.3664 7.86436 24.5092 7.92669C24.658 7.99102 24.8007 8.06541 24.9495 8.15187L29.8693 11.0611C30.4081 11.3808 30.8464 11.7869 31.1701 12.2614C31.4918 12.7399 31.7069 13.2948 31.8014 13.914L32.9555 21.3952C32.9856 21.5942 32.9756 21.7832 32.9273 21.9541C32.8791 22.127 32.7866 22.2939 32.6579 22.4427C32.5272 22.5935 32.3785 22.7081 32.2156 22.7845C32.0527 22.8588 31.8678 22.897 31.6667 22.897H31.4878C31.2043 22.897 30.9469 22.8126 30.7379 22.6638C30.5227 22.511 30.3518 22.2858 30.2513 22.0124L28.2267 16.5015C28.0096 15.9105 27.6858 15.3998 27.2677 14.9836C26.8495 14.5674 26.3388 14.2477 25.7477 14.0326L24.477 13.5722C23.8638 13.351 23.2727 13.154 22.6595 13.0575C22.0222 12.9569 21.3768 12.965 20.6972 13.158L19.1893 13.5882C18.8596 13.6827 18.5681 13.8376 18.3207 14.0466C18.0734 14.2557 17.8724 14.5191 17.7256 14.8267C17.5789 15.1343 17.5025 15.456 17.4944 15.7817C17.4884 16.1034 17.5507 16.4271 17.6834 16.7408L19.129 20.1426C19.1572 20.209 19.1974 20.2673 19.2476 20.3135C19.5211 20.591 19.7965 20.8704 20.07 21.1479C20.3152 21.3972 20.4419 21.7209 20.4439 22.0466C20.4459 22.3723 20.3273 22.7041 20.082 22.9655C19.8629 23.2027 19.5814 23.3435 19.2939 23.3837C19.0064 23.4239 18.7008 23.3636 18.4334 23.1987L16.0288 21.7189L12.257 14.3443C12.1525 14.1392 12.0258 13.9583 11.875 13.7995C11.7242 13.6386 11.5493 13.5039 11.3483 13.3873L9.6734 12.4205ZM8.42083 12.5411C8.38866 12.5954 8.3384 12.6316 8.28009 12.6477C8.21977 12.6637 8.15543 12.6577 8.10115 12.6255L6.24138 11.5519C6.1871 11.5198 6.15091 11.4675 6.13483 11.4112C6.11874 11.3529 6.12477 11.2886 6.15694 11.2343L11.3101 2.31143C11.3423 2.25715 11.3946 2.21895 11.4508 2.20488C11.5092 2.18879 11.5735 2.19482 11.6278 2.22498L13.4996 3.30667C13.5478 3.33884 13.582 3.3871 13.5961 3.44138C13.6122 3.49969 13.6061 3.56402 13.574 3.61831C11.859 6.59188 10.1379 9.56772 8.42287 12.5411L8.42083 12.5411Z" fill="#671414"/>
<path d="M12.1387 1.33646C11.8371 1.16355 11.4913 1.12937 11.1837 1.2098C10.872 1.29223 10.5926 1.4973 10.4197 1.79486L5.26855 10.7177C5.09565 11.0193 5.05946 11.3631 5.14189 11.6707C5.22433 11.9823 5.42739 12.2638 5.72695 12.4367L7.73345 13.5808C7.99684 13.6913 8.28233 13.7054 8.54369 13.6371C8.76284 13.5787 8.96792 13.4601 9.13076 13.2892L10.8357 14.2744C10.9503 14.3408 11.0488 14.4172 11.1313 14.5036C11.2137 14.5881 11.2841 14.6906 11.3444 14.8092L15.1825 22.3104C15.2247 22.3929 15.287 22.4632 15.3695 22.5155L17.8967 24.0737L18.0093 24.138C17.9832 24.2828 17.9611 24.4275 17.943 24.5723C17.9088 24.8618 17.8907 25.1553 17.8907 25.4469C17.8907 27.4594 18.707 29.283 20.0279 30.6042C21.3508 31.9251 23.1744 32.7434 25.1867 32.7434C27.1993 32.7434 29.0208 31.9271 30.342 30.6062C31.6649 29.2812 32.4811 27.4597 32.4811 25.4473C32.4811 25.0714 32.451 24.6994 32.3967 24.3375C32.3726 24.1707 32.3404 24.0038 32.3022 23.8389C32.4208 23.8068 32.5354 23.7645 32.646 23.7143C32.9436 23.5755 33.213 23.3725 33.4382 23.1091C33.6654 22.8437 33.8262 22.5482 33.9167 22.2325C34.0072 21.9148 34.0273 21.5811 33.975 21.2353L32.8209 13.7562C32.7023 12.9841 32.4309 12.2885 32.0228 11.6853C31.6106 11.0801 31.0637 10.5715 30.3942 10.1754L25.4744 7.26617C25.2834 7.15559 25.1044 7.06109 24.9215 6.98268C24.7345 6.90025 24.5435 6.83189 24.3384 6.77157L14.573 3.87438C14.6454 3.64317 14.6474 3.39989 14.5891 3.1747C14.5067 2.86508 14.3036 2.58362 14.0041 2.41068L12.1423 1.33506L12.1387 1.33646ZM19.0025 24.4216C19.1473 24.4297 19.2941 24.4216 19.4368 24.4015C19.9535 24.3291 20.4481 24.0798 20.8362 23.6656C21.2644 23.2052 21.4755 22.6181 21.4715 22.0391C21.4675 21.5807 21.3288 21.1243 21.0573 20.7342C21.56 20.2939 22.135 19.932 22.7623 19.6686C23.5062 19.357 24.3245 19.1841 25.183 19.1841C25.8062 19.1841 26.4054 19.2746 26.9663 19.4394C27.493 19.5942 27.9957 19.8214 28.4561 20.1029L29.2865 22.3648C29.4594 22.8352 29.7589 23.2253 30.143 23.4987C30.4667 23.7279 30.8467 23.8747 31.2588 23.9149C31.3071 24.1039 31.3453 24.2969 31.3755 24.4919C31.4237 24.8036 31.4478 25.1233 31.4478 25.449C31.4478 27.18 30.7461 28.7462 29.6142 29.8782C28.4803 31.0121 26.9141 31.7138 25.181 31.7138C23.4499 31.7138 21.8837 31.0121 20.7497 29.8802C19.6178 28.7463 18.9161 27.18 18.9161 25.449C18.9161 25.1896 18.9322 24.9383 18.9603 24.695C18.9704 24.6025 18.9844 24.5121 18.9985 24.4216L19.0025 24.4216ZM20.3616 19.9783L20.0379 19.6506L18.6306 16.3392C18.5542 16.1603 18.518 15.9773 18.522 15.8004C18.526 15.6275 18.5702 15.4485 18.6567 15.2676C18.7411 15.0906 18.8537 14.9419 18.9864 14.8293C19.1211 14.7147 19.286 14.6302 19.473 14.5759L20.9809 14.1457C21.5056 13.9969 22.0063 13.9909 22.5028 14.0693C23.0236 14.1517 23.5644 14.3327 24.1294 14.5377L25.4001 14.9982C25.8484 15.161 26.2345 15.4023 26.5461 15.7119C26.8557 16.0195 27.099 16.4055 27.2639 16.8539L27.9394 18.6935C27.7162 18.6031 27.4891 18.5226 27.2558 18.4543C26.5964 18.2593 25.8987 18.1527 25.183 18.1527C24.1858 18.1527 23.2327 18.3538 22.3642 18.7197C21.6283 19.0293 20.9508 19.4576 20.3597 19.9783L20.3616 19.9783ZM9.6734 12.4205L14.0725 4.79828L24.0427 7.7578C24.2116 7.80807 24.3664 7.86436 24.5092 7.92669C24.658 7.99102 24.8007 8.06541 24.9495 8.15187L29.8693 11.0611C30.4081 11.3808 30.8464 11.7869 31.1701 12.2614C31.4918 12.7399 31.7069 13.2948 31.8014 13.914L32.9555 21.3952C32.9856 21.5942 32.9756 21.7832 32.9273 21.9541C32.8791 22.127 32.7866 22.2939 32.6579 22.4427C32.5272 22.5935 32.3785 22.7081 32.2156 22.7845C32.0527 22.8588 31.8678 22.897 31.6667 22.897H31.4878C31.2043 22.897 30.9469 22.8126 30.7379 22.6638C30.5227 22.511 30.3518 22.2858 30.2513 22.0124L28.2267 16.5015C28.0096 15.9105 27.6858 15.3998 27.2677 14.9836C26.8495 14.5674 26.3388 14.2477 25.7477 14.0326L24.477 13.5722C23.8638 13.351 23.2727 13.154 22.6595 13.0575C22.0222 12.9569 21.3768 12.965 20.6972 13.158L19.1893 13.5882C18.8596 13.6827 18.5681 13.8376 18.3207 14.0466C18.0734 14.2557 17.8724 14.5191 17.7256 14.8267C17.5789 15.1343 17.5025 15.456 17.4944 15.7817C17.4884 16.1034 17.5507 16.4271 17.6834 16.7408L19.129 20.1426C19.1572 20.209 19.1974 20.2673 19.2476 20.3135C19.5211 20.591 19.7965 20.8704 20.07 21.1479C20.3152 21.3972 20.4419 21.7209 20.4439 22.0466C20.4459 22.3723 20.3273 22.7041 20.082 22.9655C19.8629 23.2027 19.5814 23.3435 19.2939 23.3837C19.0064 23.4239 18.7008 23.3636 18.4334 23.1987L16.0288 21.7189L12.257 14.3443C12.1525 14.1392 12.0258 13.9583 11.875 13.7995C11.7242 13.6386 11.5493 13.5039 11.3483 13.3873L9.6734 12.4205ZM8.42083 12.5411C8.38866 12.5954 8.3384 12.6316 8.28009 12.6477C8.21977 12.6637 8.15543 12.6577 8.10115 12.6255L6.24138 11.5519C6.1871 11.5198 6.15091 11.4675 6.13483 11.4112C6.11874 11.3529 6.12477 11.2886 6.15694 11.2343L11.3101 2.31143C11.3423 2.25715 11.3946 2.21895 11.4508 2.20488C11.5092 2.18879 11.5735 2.19482 11.6278 2.22498L13.4996 3.30667C13.5478 3.33884 13.582 3.3871 13.5961 3.44138C13.6122 3.49969 13.6061 3.56402 13.574 3.61831C11.859 6.59188 10.1379 9.56772 8.42287 12.5411L8.42083 12.5411Z" stroke="#671414" stroke-width="0.473524" mask="url(#path-1-outside-1_2006_855)"/>
<mask id="path-2-outside-2_2006_855" maskUnits="userSpaceOnUse" x="7.90283" y="31.1045" width="36" height="19" fill="black">
<rect fill="white" x="7.90283" y="31.1045" width="36" height="19"/>
<path fill-rule="evenodd" clip-rule="evenodd" d="M16.5624 32.3582L22.4012 35.0925L22.4034 35.0906C22.6587 34.9901 22.9382 34.9358 23.2297 34.9358C24.2879 34.9358 25.589 34.7751 26.9223 34.6104L26.9734 34.6041L26.9914 34.6019C29.9051 34.2426 32.9556 33.8666 34.4103 35.0303L38.4816 37.5656C38.5982 37.3887 38.6867 37.266 38.743 37.2097C38.9179 36.9484 39.1753 36.7714 39.4587 36.6971C39.7684 36.6166 40.1122 36.6508 40.4118 36.8237L42.2735 37.8993C42.5751 38.0723 42.7782 38.3537 42.8606 38.6634C42.943 38.973 42.9068 39.3168 42.7339 39.6184L37.5808 48.5412C37.4078 48.8408 37.1264 49.0418 36.8167 49.1263C36.5091 49.2087 36.1673 49.1725 35.8637 48.9996L34.002 47.926C33.7044 47.7551 33.5013 47.4736 33.4169 47.162C33.3345 46.8523 33.3707 46.5085 33.5436 46.2069L33.7165 45.9013C33.626 45.8893 33.5355 45.8832 33.439 45.8792L22.6442 45.5515C22.3085 45.5415 21.9968 45.4992 21.6973 45.4208L21.6752 45.4148C21.3836 45.3364 21.0981 45.2218 20.8086 45.071C19.6803 44.4818 18.4406 43.867 17.1698 43.2368C14.5072 41.9163 11.7081 40.5282 9.51147 39.1658C9.01086 38.8623 8.67711 38.3797 8.53637 37.8429C8.39564 37.3021 8.44992 36.6989 8.72537 36.1721L8.77161 36.0857C9.08527 35.5449 9.57181 35.199 10.1227 35.0523C10.2031 35.0322 10.2835 35.0141 10.366 35.002L10.38 34.9538C10.4283 34.7989 10.4967 34.6462 10.5791 34.4994C10.8907 33.9606 11.3793 33.6127 11.9302 33.466C12.3745 33.3473 12.861 33.3594 13.3255 33.5022C13.3637 33.4056 13.4119 33.3112 13.4642 33.2187C13.7779 32.6778 14.2644 32.332 14.8153 32.1853C15.3722 32.0365 15.9954 32.0928 16.5624 32.3582ZM41.7625 38.7899C41.8168 38.8221 41.853 38.8743 41.8691 38.9306C41.8852 38.9889 41.8791 39.0513 41.847 39.1056L36.6959 48.0284C36.6637 48.0827 36.6114 48.1209 36.5551 48.137C36.4968 48.153 36.4325 48.147 36.3782 48.1148L34.5164 47.0412C34.4621 47.0091 34.4239 46.9568 34.4099 46.9005C34.3938 46.8402 34.3998 46.7758 34.432 46.7215L34.7182 46.2258L34.72 46.2228L34.7308 46.2041L34.7448 46.1797L34.757 46.1587C36.3656 43.3727 37.9745 40.5865 39.5852 37.7987C39.6153 37.7424 39.6676 37.7062 39.7259 37.6902C39.7822 37.6741 39.8445 37.6801 39.8968 37.7082L41.7626 38.7859L41.7625 38.7899ZM34.5545 44.4066C35.5642 42.593 37.0202 39.9774 37.9405 38.4401L37.9425 38.4401L33.7888 35.8485C32.6868 34.9357 29.828 35.2896 27.0997 35.6273L27.0428 35.6344C25.6754 35.8028 24.3419 35.9671 23.2294 35.9671C22.8816 35.9671 22.5639 36.1119 22.3307 36.3411C22.1035 36.5703 21.9608 36.888 21.9608 37.2378C21.9608 37.6097 22.1156 37.9757 22.3649 38.2451C22.5901 38.4924 22.8957 38.6532 23.2234 38.6532L28.7323 38.6552C28.9755 38.6552 29.1927 38.8281 29.2369 39.0754C29.2872 39.3549 29.1022 39.6223 28.8247 39.6726L23.0725 40.7341C22.6221 40.8166 22.1878 40.8307 21.7636 40.7764C21.3374 40.7201 20.9212 40.5974 20.505 40.4024L11.4355 36.1541C11.0916 35.9933 10.7157 35.9571 10.3859 36.0456C10.0884 36.126 9.82498 36.3109 9.6581 36.6005L9.62795 36.6547C9.47917 36.9463 9.45102 37.28 9.52943 37.5836C9.60382 37.8711 9.77673 38.1285 10.0361 38.2873C12.5208 39.529 15.0055 40.8462 17.4826 42.1594C18.7518 42.8323 20.0191 43.5041 21.2833 44.1642C21.5024 44.2788 21.7176 44.3652 21.9387 44.4235L21.9588 44.4275C22.186 44.4879 22.4212 44.52 22.6726 44.5281L33.4751 44.8558C33.6962 44.8638 33.9033 44.8859 34.0983 44.9282L34.2451 44.9623L34.5545 44.4066ZM11.4386 35.0646L11.4677 35.0121C11.6346 34.7226 11.9 34.5376 12.1956 34.4592C12.5253 34.3707 12.9013 34.4069 13.2451 34.5678C15.0103 35.3959 16.7756 36.2223 18.5409 37.0487L18.545 37.0506L18.5495 37.0527C19.4213 37.4608 20.293 37.8689 21.1648 38.2772C21.2774 38.5205 21.4282 38.7457 21.6071 38.9387C21.9992 39.3649 22.532 39.6504 23.1271 39.6786L22.8878 39.7228C22.542 39.7871 22.2103 39.7972 21.8926 39.757C21.5729 39.7168 21.2572 39.6223 20.9396 39.4715L11.87 35.2232C11.7296 35.157 11.5851 35.1048 11.4386 35.0646ZM14.3528 33.7334C14.3206 33.7917 14.2905 33.852 14.2664 33.9143L14.2685 33.9143L20.9395 37.0387C20.9797 36.5642 21.1667 36.13 21.4542 35.7801L16.1302 33.287C15.7864 33.1262 15.4104 33.09 15.0807 33.1785C14.7831 33.2589 14.5197 33.4438 14.3528 33.7334Z"/>
</mask>
<path fill-rule="evenodd" clip-rule="evenodd" d="M16.5624 32.3582L22.4012 35.0925L22.4034 35.0906C22.6587 34.9901 22.9382 34.9358 23.2297 34.9358C24.2879 34.9358 25.589 34.7751 26.9223 34.6104L26.9734 34.6041L26.9914 34.6019C29.9051 34.2426 32.9556 33.8666 34.4103 35.0303L38.4816 37.5656C38.5982 37.3887 38.6867 37.266 38.743 37.2097C38.9179 36.9484 39.1753 36.7714 39.4587 36.6971C39.7684 36.6166 40.1122 36.6508 40.4118 36.8237L42.2735 37.8993C42.5751 38.0723 42.7782 38.3537 42.8606 38.6634C42.943 38.973 42.9068 39.3168 42.7339 39.6184L37.5808 48.5412C37.4078 48.8408 37.1264 49.0418 36.8167 49.1263C36.5091 49.2087 36.1673 49.1725 35.8637 48.9996L34.002 47.926C33.7044 47.7551 33.5013 47.4736 33.4169 47.162C33.3345 46.8523 33.3707 46.5085 33.5436 46.2069L33.7165 45.9013C33.626 45.8893 33.5355 45.8832 33.439 45.8792L22.6442 45.5515C22.3085 45.5415 21.9968 45.4992 21.6973 45.4208L21.6752 45.4148C21.3836 45.3364 21.0981 45.2218 20.8086 45.071C19.6803 44.4818 18.4406 43.867 17.1698 43.2368C14.5072 41.9163 11.7081 40.5282 9.51147 39.1658C9.01086 38.8623 8.67711 38.3797 8.53637 37.8429C8.39564 37.3021 8.44992 36.6989 8.72537 36.1721L8.77161 36.0857C9.08527 35.5449 9.57181 35.199 10.1227 35.0523C10.2031 35.0322 10.2835 35.0141 10.366 35.002L10.38 34.9538C10.4283 34.7989 10.4967 34.6462 10.5791 34.4994C10.8907 33.9606 11.3793 33.6127 11.9302 33.466C12.3745 33.3473 12.861 33.3594 13.3255 33.5022C13.3637 33.4056 13.4119 33.3112 13.4642 33.2187C13.7779 32.6778 14.2644 32.332 14.8153 32.1853C15.3722 32.0365 15.9954 32.0928 16.5624 32.3582ZM41.7625 38.7899C41.8168 38.8221 41.853 38.8743 41.8691 38.9306C41.8852 38.9889 41.8791 39.0513 41.847 39.1056L36.6959 48.0284C36.6637 48.0827 36.6114 48.1209 36.5551 48.137C36.4968 48.153 36.4325 48.147 36.3782 48.1148L34.5164 47.0412C34.4621 47.0091 34.4239 46.9568 34.4099 46.9005C34.3938 46.8402 34.3998 46.7758 34.432 46.7215L34.7182 46.2258L34.72 46.2228L34.7308 46.2041L34.7448 46.1797L34.757 46.1587C36.3656 43.3727 37.9745 40.5865 39.5852 37.7987C39.6153 37.7424 39.6676 37.7062 39.7259 37.6902C39.7822 37.6741 39.8445 37.6801 39.8968 37.7082L41.7626 38.7859L41.7625 38.7899ZM34.5545 44.4066C35.5642 42.593 37.0202 39.9774 37.9405 38.4401L37.9425 38.4401L33.7888 35.8485C32.6868 34.9357 29.828 35.2896 27.0997 35.6273L27.0428 35.6344C25.6754 35.8028 24.3419 35.9671 23.2294 35.9671C22.8816 35.9671 22.5639 36.1119 22.3307 36.3411C22.1035 36.5703 21.9608 36.888 21.9608 37.2378C21.9608 37.6097 22.1156 37.9757 22.3649 38.2451C22.5901 38.4924 22.8957 38.6532 23.2234 38.6532L28.7323 38.6552C28.9755 38.6552 29.1927 38.8281 29.2369 39.0754C29.2872 39.3549 29.1022 39.6223 28.8247 39.6726L23.0725 40.7341C22.6221 40.8166 22.1878 40.8307 21.7636 40.7764C21.3374 40.7201 20.9212 40.5974 20.505 40.4024L11.4355 36.1541C11.0916 35.9933 10.7157 35.9571 10.3859 36.0456C10.0884 36.126 9.82498 36.3109 9.6581 36.6005L9.62795 36.6547C9.47917 36.9463 9.45102 37.28 9.52943 37.5836C9.60382 37.8711 9.77673 38.1285 10.0361 38.2873C12.5208 39.529 15.0055 40.8462 17.4826 42.1594C18.7518 42.8323 20.0191 43.5041 21.2833 44.1642C21.5024 44.2788 21.7176 44.3652 21.9387 44.4235L21.9588 44.4275C22.186 44.4879 22.4212 44.52 22.6726 44.5281L33.4751 44.8558C33.6962 44.8638 33.9033 44.8859 34.0983 44.9282L34.2451 44.9623L34.5545 44.4066ZM11.4386 35.0646L11.4677 35.0121C11.6346 34.7226 11.9 34.5376 12.1956 34.4592C12.5253 34.3707 12.9013 34.4069 13.2451 34.5678C15.0103 35.3959 16.7756 36.2223 18.5409 37.0487L18.545 37.0506L18.5495 37.0527C19.4213 37.4608 20.293 37.8689 21.1648 38.2772C21.2774 38.5205 21.4282 38.7457 21.6071 38.9387C21.9992 39.3649 22.532 39.6504 23.1271 39.6786L22.8878 39.7228C22.542 39.7871 22.2103 39.7972 21.8926 39.757C21.5729 39.7168 21.2572 39.6223 20.9396 39.4715L11.87 35.2232C11.7296 35.157 11.5851 35.1048 11.4386 35.0646ZM14.3528 33.7334C14.3206 33.7917 14.2905 33.852 14.2664 33.9143L14.2685 33.9143L20.9395 37.0387C20.9797 36.5642 21.1667 36.13 21.4542 35.7801L16.1302 33.287C15.7864 33.1262 15.4104 33.09 15.0807 33.1785C14.7831 33.2589 14.5197 33.4438 14.3528 33.7334Z" fill="black"/>
<path d="M26.9734 34.6041L26.9589 34.4866L26.9589 34.4866L26.9734 34.6041ZM11.4376 35.0664L11.5411 35.1238L11.3198 35.0543L11.4376 35.0664ZM11.4378 35.0644L11.32 35.0523L11.3343 34.9133L11.4691 34.9502L11.4378 35.0644ZM34.72 46.2228L34.6175 46.1636L34.72 46.2228ZM34.7182 46.2258L34.6157 46.1666L34.7182 46.2258ZM34.7308 46.2041L34.6283 46.1449V46.1449L34.7308 46.2041ZM34.7448 46.1797L34.6423 46.1205L34.7448 46.1797ZM11.4386 35.0646L11.4699 34.9504L11.6152 34.9903L11.5421 35.1221L11.4386 35.0646ZM18.545 37.0506L18.4948 37.1578L18.545 37.0506ZM11.5555 35.0765L11.5553 35.0785L11.3198 35.0543L11.32 35.0523L11.5555 35.0765ZM34.3295 46.6624C34.4249 46.4971 34.5203 46.3318 34.6157 46.1666L34.8208 46.285C34.7253 46.4502 34.6299 46.6155 34.5345 46.7807L34.3295 46.6624ZM34.6157 46.1666C34.616 46.1661 34.6163 46.1657 34.6166 46.1652C34.6168 46.1647 34.6171 46.1641 34.6175 46.1636L34.8225 46.282C34.8222 46.2824 34.822 46.2829 34.8217 46.2834C34.8214 46.2839 34.8211 46.2844 34.8208 46.285L34.6157 46.1666ZM27.0058 34.7193C26.9998 34.7201 26.9938 34.7208 26.9878 34.7216L26.9589 34.4866C26.9649 34.4858 26.9709 34.4851 26.9769 34.4844L27.0058 34.7193ZM26.9879 34.7216C26.9709 34.7237 26.9538 34.7258 26.9368 34.7279L26.9078 34.4929C26.9248 34.4908 26.9418 34.4887 26.9589 34.4866L26.9879 34.7216ZM34.1417 44.9047C34.2388 44.7304 34.3424 44.5444 34.4511 44.3491L34.658 44.4642C34.5492 44.6595 34.4457 44.8456 34.3485 45.02L34.1417 44.9047ZM27.0283 35.5169C27.0473 35.5145 27.0663 35.5122 27.0853 35.5099L27.1142 35.7448C27.0952 35.7472 27.0762 35.7495 27.0573 35.7519L27.0283 35.5169ZM34.8333 46.2633C34.83 46.2689 34.8258 46.2763 34.8225 46.282L34.6175 46.1636C34.6214 46.1568 34.6243 46.1517 34.6283 46.1449L34.8333 46.2633ZM11.4072 35.1788C11.4069 35.1787 11.4067 35.1786 11.4065 35.1785L11.4691 34.9502C11.4693 34.9503 11.4697 34.9504 11.4699 34.9504L11.4072 35.1788ZM11.3341 35.0089L11.3351 35.0071L11.5421 35.1221L11.5411 35.1238L11.3341 35.0089ZM34.6283 46.1449C34.6306 46.1408 34.6329 46.1368 34.6353 46.1327C34.6376 46.1287 34.64 46.1246 34.6423 46.1205L34.8473 46.2389C34.845 46.243 34.8427 46.247 34.8403 46.2511C34.838 46.2551 34.8356 46.2592 34.8333 46.2633L34.6283 46.1449ZM18.4948 37.1578C18.4941 37.1575 18.4934 37.1572 18.4927 37.1568C18.4921 37.1565 18.4914 37.1562 18.4907 37.1559L18.5911 36.9414C18.5917 36.9418 18.5924 36.9421 18.5931 36.9424C18.5938 36.9427 18.5945 36.9431 18.5952 36.9434L18.4948 37.1578ZM18.4993 37.1599C18.4986 37.1596 18.4978 37.1592 18.4971 37.1589C18.4963 37.1585 18.4956 37.1582 18.4948 37.1578L18.5952 36.9434C18.5959 36.9437 18.5967 36.9441 18.5975 36.9444C18.5982 36.9448 18.599 36.9451 18.5997 36.9455L18.4993 37.1599ZM34.8595 46.2179C34.8575 46.2214 34.8554 46.2249 34.8534 46.2284C34.8514 46.2319 34.8494 46.2354 34.8473 46.2389L34.6423 46.1205C34.6443 46.117 34.6464 46.1135 34.6484 46.11C34.6504 46.1065 34.6524 46.103 34.6544 46.0995L34.8595 46.2179ZM14.2664 33.9143L14.262 34.151L13.9232 34.1449L14.0456 33.8288L14.2664 33.9143ZM14.3528 33.7334L14.1455 33.619L14.1477 33.6151L14.3528 33.7334ZM15.0807 33.1785L15.0189 32.9499L15.0193 32.9498L15.0807 33.1785ZM16.1302 33.287L16.2305 33.0726L16.2306 33.0726L16.1302 33.287ZM21.4542 35.7801L21.5546 35.5657L21.8307 35.695L21.6371 35.9305L21.4542 35.7801ZM20.9395 37.0387L21.1754 37.0587L21.1468 37.3972L20.8391 37.2531L20.9395 37.0387ZM14.2685 33.9143L14.2728 33.6776L14.3233 33.6785L14.3689 33.6999L14.2685 33.9143ZM22.4012 35.0925L22.5549 35.2726L22.4389 35.3716L22.3008 35.3069L22.4012 35.0925ZM16.5624 32.3582L16.6628 32.1437L16.6628 32.1437L16.5624 32.3582ZM14.8153 32.1853L14.8764 32.414L14.8762 32.414L14.8153 32.1853ZM13.4642 33.2187L13.2581 33.1022L13.2594 33.0999L13.4642 33.2187ZM13.3255 33.5022L13.5456 33.5893L13.4651 33.7928L13.2559 33.7285L13.3255 33.5022ZM11.9302 33.466L11.9913 33.6947L11.9911 33.6947L11.9302 33.466ZM10.5791 34.4994L10.3726 34.3834L10.3741 34.3808L10.5791 34.4994ZM10.38 34.9538L10.1527 34.8875L10.154 34.8833L10.38 34.9538ZM10.366 35.002L10.5933 35.0683L10.5507 35.2143L10.4003 35.2363L10.366 35.002ZM10.1227 35.0523L10.0617 34.8235L10.0653 34.8226L10.1227 35.0523ZM8.77161 36.0857L8.56272 35.974L8.5668 35.9669L8.77161 36.0857ZM8.72537 36.1721L8.51555 36.0624L8.5166 36.0605L8.72537 36.1721ZM8.53637 37.8429L8.30735 37.903L8.30724 37.9025L8.53637 37.8429ZM9.51147 39.1658L9.63424 38.9634L9.63626 38.9646L9.51147 39.1658ZM20.8086 45.071L20.6992 45.281L20.699 45.2809L20.8086 45.071ZM21.6752 45.4148L21.7367 45.1862L21.7374 45.1864L21.6752 45.4148ZM21.6973 45.4208L21.6373 45.6499L21.635 45.6492L21.6973 45.4208ZM22.6442 45.5515L22.6513 45.3149L22.6514 45.3149L22.6442 45.5515ZM33.439 45.8792L33.4462 45.6426L33.4489 45.6427L33.439 45.8792ZM33.7165 45.9013L33.7478 45.6667L34.0951 45.713L33.9225 46.0179L33.7165 45.9013ZM33.5436 46.2069L33.7496 46.3235L33.749 46.3247L33.5436 46.2069ZM33.4169 47.162L33.1884 47.2239L33.1881 47.2229L33.4169 47.162ZM34.002 47.926L34.1199 47.7207L34.1202 47.7209L34.002 47.926ZM35.8637 48.9996L35.7466 49.2053L35.7455 49.2047L35.8637 48.9996ZM36.8167 49.1263L36.879 49.3547L36.878 49.355L36.8167 49.1263ZM37.5808 48.5412L37.3757 48.4228L37.3757 48.4228L37.5808 48.5412ZM42.7339 39.6184L42.9393 39.7361L42.939 39.7368L42.7339 39.6184ZM42.8606 38.6634L43.0894 38.6024L43.0894 38.6024L42.8606 38.6634ZM42.2735 37.8993L42.1557 38.1047L42.1551 38.1043L42.2735 37.8993ZM40.4118 36.8237L40.5301 36.6187L40.5302 36.6187L40.4118 36.8237ZM39.4587 36.6971L39.3986 36.468L39.3992 36.4679L39.4587 36.6971ZM38.743 37.2097L38.9398 37.3414L38.9269 37.3607L38.9104 37.3772L38.743 37.2097ZM38.4816 37.5656L38.6793 37.6959L38.5523 37.8886L38.3565 37.7666L38.4816 37.5656ZM34.4103 35.0303L34.2851 35.2313L34.2733 35.2239L34.2624 35.2152L34.4103 35.0303ZM26.9734 34.6041L26.9443 34.3691L26.9444 34.3691L26.9734 34.6041ZM22.4034 35.0906L22.2497 34.9105L22.2798 34.8848L22.3167 34.8703L22.4034 35.0906ZM11.4677 35.0121L11.2607 34.8971L11.2626 34.8938L11.4677 35.0121ZM12.1956 34.4592L12.2569 34.6879L12.2563 34.688L12.1956 34.4592ZM13.2451 34.5678L13.3454 34.3533L13.3457 34.3534L13.2451 34.5678ZM21.1648 38.2772L21.2652 38.0628L21.3434 38.0994L21.3796 38.1778L21.1648 38.2772ZM21.6071 38.9387L21.7807 38.7777L21.7814 38.7784L21.6071 38.9387ZM23.1271 39.6786L23.1382 39.4421L23.1701 39.9114L23.1271 39.6786ZM22.8878 39.7228L22.8445 39.49L22.8448 39.49L22.8878 39.7228ZM21.8926 39.757L21.9221 39.5221L21.9223 39.5221L21.8926 39.757ZM20.9396 39.4715L21.04 39.2571L21.0411 39.2576L20.9396 39.4715ZM11.87 35.2232L11.7696 35.4376L11.7691 35.4374L11.87 35.2232ZM37.9405 38.4401L37.7373 38.3185L37.8082 38.2001L37.946 38.2034L37.9405 38.4401ZM34.2451 44.9623L34.4519 45.0775L34.3652 45.2334L34.1914 45.1929L34.2451 44.9623ZM34.0983 44.9282L34.1484 44.6967L34.152 44.6976L34.0983 44.9282ZM33.4751 44.8558L33.4823 44.6191L33.4837 44.6192L33.4751 44.8558ZM22.6726 44.5281L22.6654 44.7647L22.665 44.7647L22.6726 44.5281ZM21.9588 44.4275L22.0053 44.1954L22.0125 44.1968L22.0196 44.1987L21.9588 44.4275ZM21.9387 44.4235L21.8923 44.6557L21.8853 44.6543L21.8784 44.6525L21.9387 44.4235ZM21.2833 44.1642L21.3929 43.9543L21.393 43.9543L21.2833 44.1642ZM10.0361 38.2873L9.93025 38.4991L9.92113 38.4945L9.91244 38.4892L10.0361 38.2873ZM9.52943 37.5836L9.30022 37.6429L9.30019 37.6428L9.52943 37.5836ZM9.62795 36.6547L9.41693 36.547L9.42098 36.5398L9.62795 36.6547ZM9.6581 36.6005L9.45111 36.4855L9.45298 36.4822L9.6581 36.6005ZM10.3859 36.0456L10.3242 35.817L10.3246 35.8169L10.3859 36.0456ZM11.4355 36.1541L11.5358 35.9397L11.5359 35.9397L11.4355 36.1541ZM20.505 40.4024L20.6054 40.188L20.6054 40.188L20.505 40.4024ZM21.7636 40.7764L21.7335 41.0112L21.7326 41.0111L21.7636 40.7764ZM23.0725 40.7341L23.1154 40.967L23.1151 40.967L23.0725 40.7341ZM28.8247 39.6726L28.7818 39.4397L28.7825 39.4396L28.8247 39.6726ZM29.2369 39.0754L29.0039 39.1173L29.0038 39.1171L29.2369 39.0754ZM28.7323 38.6552V38.892H28.7322L28.7323 38.6552ZM23.2234 38.6532V38.4164H23.2235L23.2234 38.6532ZM22.3649 38.2451L22.5387 38.0843L22.54 38.0857L22.3649 38.2451ZM22.3307 36.3411L22.1626 36.1744L22.1648 36.1722L22.3307 36.3411ZM27.0997 35.6273L27.1288 35.8623L27.1287 35.8623L27.0997 35.6273ZM33.7888 35.8485L33.6634 36.0494L33.65 36.041L33.6377 36.0308L33.7888 35.8485ZM37.9425 38.4401L38.0679 38.2392L38.8016 38.697L37.937 38.6768L37.9425 38.4401ZM41.7625 38.7899L41.6418 38.9936L41.5244 38.924L41.5258 38.7875L41.7625 38.7899ZM41.8691 38.9306L42.0968 38.8656L42.0973 38.8677L41.8691 38.9306ZM41.847 39.1056L41.6419 38.9872L41.6433 38.9848L41.847 39.1056ZM36.6959 48.0284L36.9009 48.1468L36.8996 48.1491L36.6959 48.0284ZM36.5551 48.137L36.6202 48.3646L36.6181 48.3652L36.5551 48.137ZM36.3782 48.1148L36.4965 47.9097L36.4989 47.9112L36.3782 48.1148ZM34.5164 47.0412L34.3981 47.2463L34.3957 47.2449L34.5164 47.0412ZM34.4099 46.9005L34.6387 46.8395L34.6396 46.8431L34.4099 46.9005ZM34.432 46.7215L34.637 46.8399L34.6357 46.8423L34.432 46.7215ZM39.5852 37.7987L39.794 37.9106L39.7902 37.9172L39.5852 37.7987ZM39.7259 37.6902L39.7909 37.9178L39.7889 37.9184L39.7259 37.6902ZM39.8968 37.7082L40.0091 37.4997L40.0152 37.5032L39.8968 37.7082ZM41.7626 38.7859L41.881 38.5809L42.0008 38.6501L41.9993 38.7884L41.7626 38.7859ZM26.9223 34.6104L26.8933 34.3754L26.8933 34.3754L26.9223 34.6104ZM26.9914 34.6019L27.0203 34.8368L27.0203 34.8368L26.9914 34.6019ZM17.1698 43.2368L17.0646 43.4489L17.1698 43.2368ZM34.72 46.2228L34.5149 46.1045L34.5149 46.1044L34.72 46.2228ZM34.7182 46.2258L34.9233 46.3441L34.9233 46.3442L34.7182 46.2258ZM34.7308 46.2041L34.9358 46.3224L34.9358 46.3225L34.7308 46.2041ZM34.5545 44.4066L34.7614 44.5218L34.7614 44.5218L34.5545 44.4066ZM27.0428 35.6344L27.0138 35.3994L27.0138 35.3994L27.0428 35.6344ZM17.4826 42.1594L17.5935 41.9502H17.5935L17.4826 42.1594ZM34.7448 46.1797L34.5398 46.0614L34.5398 46.0614L34.7448 46.1797ZM11.4386 35.0646L11.3759 35.2929L11.0852 35.2132L11.2316 34.9496L11.4386 35.0646ZM18.545 37.0506L18.4446 37.265L18.4446 37.265L18.545 37.0506ZM34.757 46.1587L34.5519 46.0403L34.5519 46.0403L34.757 46.1587ZM18.5409 37.0487L18.6412 36.8342L18.6412 36.8342L18.5409 37.0487ZM18.5495 37.0527L18.6499 36.8383L18.6499 36.8383L18.5495 37.0527ZM14.0456 33.8288C14.0749 33.753 14.1105 33.6825 14.1455 33.619L14.5601 33.8477C14.5308 33.9008 14.5061 33.951 14.4872 33.9998L14.0456 33.8288ZM14.1477 33.6151C14.3483 33.267 14.6657 33.0453 15.0189 32.9499L15.1424 33.407C14.9004 33.4724 14.6911 33.6206 14.5579 33.8516L14.1477 33.6151ZM15.0193 32.9498C15.4072 32.8457 15.8403 32.89 16.2305 33.0726L16.0299 33.5015C15.7324 33.3623 15.4136 33.3343 15.142 33.4071L15.0193 32.9498ZM16.2306 33.0726L21.5546 35.5657L21.3538 35.9945L16.0298 33.5014L16.2306 33.0726ZM21.6371 35.9305C21.3787 36.245 21.2114 36.6342 21.1754 37.0587L20.7036 37.0187C20.7481 36.4942 20.9548 36.015 21.2713 35.6298L21.6371 35.9305ZM20.8391 37.2531L14.1681 34.1288L14.3689 33.6999L21.0399 36.8243L20.8391 37.2531ZM14.2642 34.1511L14.262 34.151L14.2707 33.6776L14.2728 33.6776L14.2642 34.1511ZM22.3008 35.3069L16.462 32.5726L16.6628 32.1437L22.5016 34.8781L22.3008 35.3069ZM16.4621 32.5726C15.9431 32.3297 15.3769 32.2803 14.8764 32.414L14.7542 31.9565C15.3675 31.7927 16.0478 31.8559 16.6628 32.1437L16.4621 32.5726ZM14.8762 32.414C14.383 32.5454 13.9497 32.8535 13.669 33.3374L13.2594 33.0999C13.6061 32.5022 14.1458 32.1186 14.7543 31.9565L14.8762 32.414ZM13.6703 33.3352C13.621 33.4224 13.5784 33.5065 13.5456 33.5893L13.1053 33.415C13.149 33.3048 13.2028 33.2 13.2581 33.1022L13.6703 33.3352ZM13.2559 33.7285C12.8317 33.5981 12.3904 33.5881 11.9913 33.6947L11.8691 33.2372C12.3585 33.1066 12.8904 33.1207 13.395 33.2758L13.2559 33.7285ZM11.9911 33.6947C11.4978 33.8262 11.0626 34.1362 10.784 34.6179L10.3741 34.3808C10.7188 33.7849 11.2607 33.3993 11.8692 33.2372L11.9911 33.6947ZM10.7855 34.6153C10.7099 34.7499 10.6487 34.8875 10.6061 35.0242L10.154 34.8833C10.2079 34.7104 10.2834 34.5424 10.3727 34.3834L10.7855 34.6153ZM10.6073 35.0201L10.5933 35.0683L10.1387 34.9357L10.1528 34.8875L10.6073 35.0201ZM10.4003 35.2363C10.3291 35.2467 10.2574 35.2626 10.1801 35.282L10.0653 34.8226C10.1488 34.8017 10.2379 34.7815 10.3317 34.7677L10.4003 35.2363ZM10.1837 35.2811C9.69041 35.4125 9.25708 35.7205 8.97642 36.2045L8.5668 35.9669C8.91346 35.3692 9.45322 34.9856 10.0617 34.8235L10.1837 35.2811ZM8.98038 36.1974L8.93414 36.2838L8.5166 36.0605L8.56284 35.974L8.98038 36.1974ZM8.93518 36.2819C8.68806 36.7544 8.63897 37.297 8.76551 37.7833L8.30724 37.9025C8.15231 37.3071 8.21178 36.6434 8.51556 36.0624L8.93518 36.2819ZM8.7654 37.7829C8.89176 38.2648 9.19014 38.6941 9.63424 38.9634L9.38871 39.3683C8.8316 39.0305 8.46247 38.4946 8.30735 37.903L8.7654 37.7829ZM20.918 44.861C21.1944 45.005 21.4639 45.1128 21.7367 45.1862L21.6137 45.6434C21.3034 45.56 21.0019 45.4386 20.6992 45.281L20.918 44.861ZM21.7374 45.1864L21.7596 45.1924L21.635 45.6492L21.6129 45.6432L21.7374 45.1864ZM21.7572 45.1918C22.0376 45.2652 22.3313 45.3053 22.6513 45.3149L22.6371 45.7882C22.2856 45.7776 21.9561 45.7333 21.6373 45.6499L21.7572 45.1918ZM22.6514 45.3149L33.4462 45.6426L33.4318 46.1159L22.637 45.7882L22.6514 45.3149ZM33.4489 45.6427C33.5488 45.6468 33.6472 45.6533 33.7478 45.6667L33.6852 46.136C33.6048 46.1253 33.5223 46.1197 33.4292 46.1158L33.4489 45.6427ZM33.9225 46.0179L33.7496 46.3235L33.3375 46.0904L33.5104 45.7848L33.9225 46.0179ZM33.749 46.3247C33.608 46.5705 33.5788 46.8499 33.6457 47.1011L33.1881 47.2229C33.0901 46.8547 33.1333 46.4465 33.3382 46.0892L33.749 46.3247ZM33.6454 47.1001C33.7144 47.3548 33.88 47.5829 34.1199 47.7207L33.884 48.1313C33.5288 47.9273 33.2882 47.5924 33.1884 47.2239L33.6454 47.1001ZM34.1202 47.7209L35.982 48.7945L35.7455 49.2047L33.8837 48.1311L34.1202 47.7209ZM35.9809 48.7939C36.2295 48.9355 36.5071 48.9641 36.7555 48.8976L36.878 49.355C36.5111 49.4533 36.1051 49.4096 35.7466 49.2053L35.9809 48.7939ZM36.7544 48.8978C37.0079 48.8287 37.236 48.6648 37.3757 48.4228L37.7858 48.6596C37.5796 49.0167 37.2449 49.2549 36.879 49.3547L36.7544 48.8978ZM37.3757 48.4228L42.5289 39.5L42.939 39.7368L37.7858 48.6596L37.3757 48.4228ZM42.5285 39.5006C42.6695 39.2548 42.6987 38.9754 42.6318 38.7243L43.0894 38.6024C43.1874 38.9706 43.1442 39.3788 42.9393 39.7361L42.5285 39.5006ZM42.6318 38.7243C42.5649 38.473 42.4002 38.2449 42.1557 38.1047L42.3913 37.6939C42.75 37.8997 42.9914 38.2344 43.0894 38.6024L42.6318 38.7243ZM42.1551 38.1043L40.2933 37.0287L40.5302 36.6187L42.392 37.6943L42.1551 38.1043ZM40.2934 37.0288C40.051 36.8888 39.7715 36.8604 39.5183 36.9262L39.3992 36.4679C39.7652 36.3728 40.1734 36.4128 40.5301 36.6187L40.2934 37.0288ZM39.5188 36.9261C39.2905 36.986 39.0821 37.1287 38.9398 37.3414L38.5462 37.0781C38.7537 36.768 39.06 36.5569 39.3986 36.468L39.5188 36.9261ZM38.9104 37.3772C38.8742 37.4134 38.7987 37.5147 38.6793 37.6959L38.2839 37.4353C38.3978 37.2626 38.4992 37.1187 38.5756 37.0423L38.9104 37.3772ZM38.3565 37.7666L34.2851 35.2313L34.5354 34.8293L38.6068 37.3646L38.3565 37.7666ZM23.2297 35.1726C22.9677 35.1726 22.7177 35.2213 22.4901 35.3109L22.3167 34.8703C22.5998 34.7588 22.9087 34.699 23.2297 34.699V35.1726ZM22.5571 35.2707L22.5549 35.2726L22.2475 34.9124L22.2497 34.9105L22.5571 35.2707ZM11.2626 34.8938C11.4634 34.5454 11.7833 34.3236 12.1349 34.2303L12.2563 34.688C12.0167 34.7516 11.8058 34.8997 11.6729 35.1303L11.2626 34.8938ZM12.1342 34.2305C12.5221 34.1264 12.9552 34.1708 13.3454 34.3533L13.1448 34.7822C12.8473 34.6431 12.5285 34.615 12.2569 34.6879L12.1342 34.2305ZM21.3796 38.1778C21.4819 38.3988 21.6189 38.6031 21.7807 38.7777L21.4335 39.0996C21.2374 38.8882 21.0728 38.6422 20.9499 38.3766L21.3796 38.1778ZM21.7814 38.7784C22.1374 39.1655 22.614 39.4173 23.1382 39.4421L23.1159 39.9151C22.4499 39.8836 21.8609 39.5643 21.4328 39.099L21.7814 38.7784ZM23.1701 39.9114L22.9308 39.9556L22.8448 39.49L23.084 39.4458L23.1701 39.9114ZM22.9311 39.9556C22.5626 40.0241 22.2062 40.0353 21.8628 39.9919L21.9223 39.5221C22.2143 39.5591 22.5214 39.5501 22.8445 39.49L22.9311 39.9556ZM21.863 39.9919C21.5163 39.9483 21.1764 39.846 20.838 39.6854L21.0411 39.2576C21.3381 39.3986 21.6295 39.4853 21.9221 39.5221L21.863 39.9919ZM20.8391 39.6859L11.7696 35.4376L11.9705 35.0088L21.04 39.2571L20.8391 39.6859ZM34.1914 45.1929L34.0446 45.1588L34.152 44.6976L34.2988 44.7317L34.1914 45.1929ZM34.0482 45.1596C33.8702 45.121 33.6775 45.1001 33.4665 45.0924L33.4837 44.6192C33.7149 44.6276 33.9364 44.6509 34.1484 44.6968L34.0482 45.1596ZM33.4679 45.0924L22.6654 44.7647L22.6797 44.2914L33.4823 44.6191L33.4679 45.0924ZM22.665 44.7647C22.3979 44.7562 22.1447 44.7218 21.8981 44.6564L22.0196 44.1987C22.2274 44.2539 22.4445 44.2839 22.6801 44.2914L22.665 44.7647ZM21.9124 44.6597L21.8923 44.6557L21.9852 44.1914L22.0053 44.1954L21.9124 44.6597ZM21.8784 44.6525C21.6376 44.589 21.406 44.4955 21.1736 44.374L21.393 43.9543C21.5989 44.062 21.7975 44.1414 21.9991 44.1946L21.8784 44.6525ZM9.91244 38.4892C9.59458 38.2946 9.38808 37.9825 9.30022 37.6429L9.75864 37.5243C9.81957 37.7598 9.95887 37.9624 10.1597 38.0854L9.91244 38.4892ZM9.30019 37.6428C9.20814 37.2864 9.24054 36.893 9.41706 36.5471L9.83883 36.7624C9.71779 36.9995 9.6939 37.2736 9.75867 37.5244L9.30019 37.6428ZM9.42098 36.5398L9.45113 36.4855L9.86508 36.7154L9.83492 36.7697L9.42098 36.5398ZM9.45298 36.4822C9.65362 36.1341 9.97103 35.9124 10.3242 35.817L10.4477 36.2741C10.2057 36.3395 9.99635 36.4877 9.86323 36.7187L9.45298 36.4822ZM10.3246 35.8169C10.7125 35.7128 11.1456 35.7571 11.5358 35.9397L11.3351 36.3686C11.0377 36.2294 10.7188 36.2014 10.4473 36.2742L10.3246 35.8169ZM11.5359 35.9397L20.6054 40.188L20.4046 40.6168L11.335 36.3685L11.5359 35.9397ZM20.6054 40.188C21.0007 40.3732 21.3935 40.4887 21.7946 40.5416L21.7326 41.0111C21.2812 40.9515 20.8417 40.8216 20.4045 40.6168L20.6054 40.188ZM21.7936 40.5415C22.192 40.5925 22.6017 40.5796 23.0298 40.5012L23.1151 40.967C22.6425 41.0535 22.1836 41.0688 21.7335 41.0112L21.7936 40.5415ZM23.0295 40.5013L28.7818 39.4397L28.8677 39.9054L23.1154 40.967L23.0295 40.5013ZM28.7825 39.4396C28.9304 39.4128 29.0312 39.2693 29.0039 39.1173L29.4699 39.0335C29.5431 39.4405 29.274 39.8318 28.8669 39.9055L28.7825 39.4396ZM29.0038 39.1171C28.9805 38.9863 28.8646 38.892 28.7323 38.892V38.4185C29.0865 38.4185 29.4049 38.6699 29.47 39.0337L29.0038 39.1171ZM28.7322 38.892L23.2233 38.89L23.2235 38.4164L28.7323 38.4185L28.7322 38.892ZM23.2234 38.89C22.8164 38.89 22.4506 38.6908 22.1898 38.4045L22.54 38.0857C22.7296 38.2939 22.9751 38.4164 23.2234 38.4164V38.89ZM22.1911 38.4059C21.9044 38.096 21.724 37.6737 21.724 37.2378H22.1975C22.1975 37.5457 22.3268 37.8553 22.5387 38.0843L22.1911 38.4059ZM21.724 37.2378C21.724 36.8225 21.8936 36.4457 22.1626 36.1744L22.4989 36.5078C22.3135 36.6948 22.1975 36.9534 22.1975 37.2378H21.724ZM22.1648 36.1722C22.4386 35.9031 22.8146 35.7304 23.2294 35.7304V36.2039C22.9486 36.2039 22.6893 36.3207 22.4967 36.51L22.1648 36.1722ZM27.0706 35.3924C28.4312 35.2239 29.8418 35.049 31.0508 35.0322C31.656 35.0238 32.2197 35.0547 32.7073 35.1489C33.1927 35.2426 33.6215 35.4025 33.9398 35.6662L33.6377 36.0308C33.405 35.8381 33.0632 35.6999 32.6175 35.6138C32.1739 35.5282 31.6457 35.4975 31.0574 35.5057C29.8795 35.5221 28.4966 35.693 27.1288 35.8623L27.0706 35.3924ZM33.9141 35.6476L38.0679 38.2392L37.8172 38.641L33.6634 36.0494L33.9141 35.6476ZM37.937 38.6768L37.9349 38.6768L37.946 38.2034L37.9481 38.2034L37.937 38.6768ZM41.8832 38.5862C41.9954 38.6527 42.066 38.7579 42.0967 38.8656L41.6414 38.9957C41.6409 38.9938 41.6401 38.9925 41.6398 38.992C41.6396 38.9918 41.6402 38.9926 41.6418 38.9936L41.8832 38.5862ZM42.0973 38.8677C42.1291 38.983 42.1182 39.1123 42.0507 39.2263L41.6433 38.9848C41.6422 38.9867 41.6413 38.9893 41.641 38.9917C41.6408 38.9939 41.6411 38.9946 41.6409 38.9936L42.0973 38.8677ZM42.052 39.2239L36.9009 48.1468L36.4908 47.91L41.6419 38.9872L42.052 39.2239ZM36.8996 48.1491C36.8353 48.2574 36.7324 48.3326 36.6202 48.3646L36.4901 47.9093C36.4895 47.9095 36.4902 47.9093 36.4912 47.9085C36.4922 47.9078 36.4924 47.9074 36.4922 47.9077L36.8996 48.1491ZM36.6181 48.3652C36.5034 48.3968 36.372 48.3864 36.2575 48.3185L36.4989 47.9112C36.493 47.9077 36.4902 47.9093 36.4922 47.9087L36.6181 48.3652ZM36.2599 48.3199L34.3982 47.2463L34.6347 46.8361L36.4965 47.9097L36.2599 48.3199ZM34.3957 47.2449C34.288 47.1811 34.2098 47.0766 34.1802 46.9579L34.6396 46.8431C34.6386 46.8393 34.6375 46.8379 34.6375 46.8379C34.6374 46.8377 34.6373 46.8377 34.6371 46.8375L34.3957 47.2449ZM34.1811 46.9615C34.1506 46.8472 34.16 46.7162 34.2283 46.6008L34.6357 46.8423C34.6374 46.8393 34.6379 46.8369 34.638 46.836C34.6381 46.8353 34.6379 46.8365 34.6386 46.8395L34.1811 46.9615ZM39.3765 37.6869C39.442 37.5646 39.5527 37.4923 39.6629 37.4619L39.7889 37.9184C39.7859 37.9192 39.7855 37.9199 39.787 37.9188C39.7889 37.9174 39.7917 37.9145 39.7939 37.9105L39.3765 37.6869ZM39.6609 37.4625C39.7749 37.4299 39.901 37.4416 40.009 37.4998L39.7845 37.9167C39.7867 37.9179 39.7881 37.9181 39.7885 37.9181C39.7889 37.9182 39.7896 37.9182 39.7909 37.9178L39.6609 37.4625ZM40.0152 37.5032L41.881 38.5809L41.6442 38.9909L39.7784 37.9133L40.0152 37.5032ZM41.9993 38.7884L41.9993 38.7924L41.5258 38.7875L41.5258 38.7835L41.9993 38.7884ZM23.2297 34.699C24.2702 34.699 25.5552 34.5407 26.8933 34.3754L26.9514 34.8454C25.6228 35.0095 24.3056 35.1726 23.2297 35.1726V34.699ZM26.8933 34.3754L26.9443 34.3691L27.0024 34.839L26.9514 34.8454L26.8933 34.3754ZM26.9444 34.3691L26.9624 34.3669L27.0203 34.8368L27.0023 34.8391L26.9444 34.3691ZM26.9624 34.3669C28.4153 34.1878 29.9224 34.0016 31.2492 34.0082C32.5666 34.0148 33.7642 34.2103 34.5582 34.8454L34.2624 35.2152C33.6016 34.6866 32.5467 34.4883 31.2468 34.4817C29.9562 34.4753 28.4812 34.6567 27.0203 34.8368L26.9624 34.3669ZM9.63626 38.9646C11.8214 40.3199 14.6094 41.7028 17.275 43.0247L17.0646 43.4489C14.405 42.1299 11.5948 40.7365 9.38668 39.367L9.63626 38.9646ZM17.275 43.0247C18.5453 43.6546 19.7873 44.2705 20.9182 44.8611L20.699 45.2809C19.5734 44.693 18.336 44.0794 17.0646 43.4489L17.275 43.0247ZM34.9251 46.3411L34.9233 46.3441L34.5132 46.1075L34.5149 46.1045L34.9251 46.3411ZM34.9233 46.3442L34.637 46.8399L34.2269 46.6032L34.5132 46.1074L34.9233 46.3442ZM34.5149 46.1044L34.5258 46.0857L34.9358 46.3225L34.925 46.3412L34.5149 46.1044ZM34.3477 44.2915C35.3565 42.4793 36.8147 39.8598 37.7373 38.3185L38.1436 38.5617C37.2258 40.0951 35.7718 42.7067 34.7614 44.5218L34.3477 44.2915ZM27.1287 35.8623L27.0717 35.8693L27.0138 35.3994L27.0708 35.3924L27.1287 35.8623ZM27.0717 35.8693C25.7089 36.0373 24.3595 36.2039 23.2294 36.2039V35.7304C24.3243 35.7304 25.6419 35.5684 27.0138 35.3994L27.0717 35.8693ZM10.1419 38.0755C12.6296 39.3187 15.1168 40.6372 17.5935 41.9502L17.3717 42.3686C14.8941 41.0552 12.412 39.7393 9.93025 38.4991L10.1419 38.0755ZM17.5935 41.9502C18.8628 42.6232 20.1294 43.2946 21.3929 43.9543L21.1737 44.374C19.9087 43.7136 18.6408 43.0414 17.3717 42.3686L17.5935 41.9502ZM34.9499 46.2981L34.9358 46.3224L34.5257 46.0857L34.5398 46.0614L34.9499 46.2981ZM34.7614 44.5218L34.4519 45.0775L34.0382 44.8472L34.3477 44.2915L34.7614 44.5218ZM11.6747 35.1271L11.6455 35.1796L11.2316 34.9496L11.2608 34.8971L11.6747 35.1271ZM11.5012 34.8363C11.6598 34.8798 11.8173 34.9366 11.971 35.0091L11.7691 35.4374C11.6418 35.3774 11.5103 35.3298 11.3759 35.2929L11.5012 34.8363ZM34.5398 46.0614L34.5519 46.0403L34.962 46.2771L34.9499 46.2981L34.5398 46.0614ZM34.5519 46.0403C36.1606 43.2544 37.7694 40.4681 39.3802 37.6803L39.7902 37.9172C38.1795 40.7049 36.5707 43.4911 34.962 46.2771L34.5519 46.0403ZM13.3457 34.3534C15.1108 35.1815 16.876 36.0078 18.6412 36.8342L18.4405 37.2631C16.6752 36.4367 14.9099 35.6103 13.1445 34.7821L13.3457 34.3534ZM18.6412 36.8342L18.6454 36.8362L18.4446 37.265L18.4405 37.2631L18.6412 36.8342ZM18.6454 36.8362L18.6499 36.8383L18.4491 37.2671L18.4446 37.265L18.6454 36.8362ZM18.6499 36.8383C19.5217 37.2464 20.3934 37.6545 21.2652 38.0628L21.0644 38.4916C20.1926 38.0833 19.3209 37.6752 18.4491 37.2671L18.6499 36.8383Z" fill="black" mask="url(#path-2-outside-2_2006_855)"/>
</g>
<defs>
<clipPath id="clip0_2006_855">
<rect width="48" height="48" fill="white" transform="translate(0 0.77002)"/>
</clipPath>
</defs>
</svg>
