<svg width="48" height="49" viewBox="0 0 48 49" fill="none" xmlns="http://www.w3.org/2000/svg">
<g clip-path="url(#clip0_2006_2707)">
<path d="M32.1026 38.7484H38.9405C39.2599 38.7484 39.5192 38.4892 39.5192 38.1697L39.5169 30.568C39.5169 30.2485 39.2576 29.9893 38.9382 29.9893H32.1026C31.7832 29.9893 31.5239 30.2485 31.5239 30.568V38.1697C31.5239 38.4892 31.7831 38.7484 32.1026 38.7484ZM32.6813 31.1467H38.3618V37.5935H32.6813V31.1467Z" fill="#671414"/>
<path d="M25.8609 25.4962H32.6988C33.0182 25.4962 33.2775 25.237 33.2775 24.9175L33.2752 17.3158C33.2752 16.9963 33.0159 16.7371 32.6965 16.7371H25.8609C25.5415 16.7371 25.2822 16.9963 25.2822 17.3158V24.9175C25.2822 25.237 25.5414 25.4962 25.8609 25.4962ZM26.4396 17.8945H32.1201V24.3413H26.4396V17.8945Z" fill="#671414"/>
<path d="M15.7749 25.4962H22.6129C22.9323 25.4962 23.1916 25.237 23.1916 24.9175L23.1892 17.3158C23.1892 16.9963 22.93 16.7371 22.6105 16.7371H15.775C15.4555 16.7371 15.1963 16.9963 15.1963 17.3158V24.9175C15.1963 25.237 15.4555 25.4962 15.7749 25.4962ZM16.3536 17.8945H22.0342V24.3413H16.3536V17.8945Z" fill="#671414"/>
<path d="M16.2521 29.9895H9.41659C9.09715 29.9895 8.83789 30.2488 8.83789 30.5682V38.17C8.83789 38.4894 9.09715 38.7487 9.41659 38.7487H16.2545C16.574 38.7487 16.8332 38.4894 16.8332 38.17L16.8309 30.5682C16.8309 30.2488 16.5739 29.9895 16.2521 29.9895ZM15.6758 37.5913H9.99522V31.1468H15.6758V37.5913Z" fill="#671414"/>
<path d="M47.7178 20.6425L41.8404 16.0985V5.50357C41.8404 5.18413 41.5812 4.92487 41.2617 4.92487H35.6159C35.2965 4.92487 35.0372 5.18413 35.0372 5.50357V10.8415L24.5537 2.73249C24.3453 2.57045 24.0537 2.57045 23.8453 2.73249L0.759696 20.6424C0.618493 20.7535 0.535156 20.9225 0.535156 21.1008V25.4179C0.535156 25.6378 0.660158 25.8392 0.859233 25.9364C1.05599 26.0336 1.29442 26.0082 1.468 25.8739L5.55132 22.7049V42.1745H3.66012C3.34068 42.1745 3.08142 42.4338 3.08142 42.7533V45.5287C3.08142 45.8482 3.34068 46.1074 3.66012 46.1074H44.8151C45.1345 46.1074 45.3938 45.8482 45.3938 45.5287V42.7533C45.3938 42.4338 45.1345 42.1745 44.8151 42.1745H42.8452V22.654L47.0095 25.8739C47.1137 25.9549 47.2364 25.9942 47.3637 25.9942C47.4517 25.9942 47.5373 25.9757 47.6183 25.934C47.8174 25.8391 47.9424 25.6378 47.9424 25.4155V21.0984C47.9424 20.9224 47.859 20.7536 47.7178 20.6425ZM36.1948 6.08253H40.6855V15.2073L36.1948 11.735V6.08253ZM44.2386 44.9531H4.23864V43.3327H44.2386V44.9531ZM27.0185 42.1753H21.338V31.1477H27.0185V42.1753ZM41.6899 42.1753H28.1735V30.5688C28.1735 30.2493 27.9142 29.9901 27.5948 29.9901H20.7568C20.4374 29.9901 20.1781 30.2493 20.1781 30.5688L20.1804 42.1753H6.70844V21.8073L24.1994 8.23809L41.6904 21.7611L41.6899 42.1753ZM46.7848 24.2399L24.5531 7.04994C24.449 6.96892 24.324 6.92957 24.199 6.92957C24.074 6.92957 23.949 6.96893 23.8448 7.04994L1.6919 24.2375V21.3856L24.2009 3.92254L46.7864 21.3856L46.7848 24.2399Z" fill="black"/>
</g>
<defs>
<clipPath id="clip0_2006_2707">
<rect width="48" height="43.8519" fill="white" transform="translate(0 2.43408)"/>
</clipPath>
</defs>
</svg>
