<svg width="48" height="49" viewBox="0 0 48 49" fill="none" xmlns="http://www.w3.org/2000/svg">
<path d="M47.9962 46.7227C47.7234 43.0846 45.1989 40.0822 41.8614 39.0448C43.3543 38.164 44.3587 36.5395 44.3587 34.6842C44.3587 31.8944 42.0889 29.624 39.2985 29.624C36.5081 29.624 34.2383 31.8938 34.2383 34.6842C34.2383 36.5395 35.2427 38.164 36.7356 39.0448C33.3981 40.0822 30.8736 43.0846 30.6008 46.7227C30.5736 47.0856 30.6993 47.4457 30.9455 47.7116C31.1917 47.9775 31.5417 48.1294 31.9056 48.1294H46.6903C47.0542 48.1294 47.4043 47.977 47.6504 47.7111C47.8982 47.4457 48.0239 47.0856 47.9962 46.7227ZM39.299 31.1303C41.2587 31.1303 42.8529 32.7245 42.8529 34.6842C42.8529 36.6439 41.2587 38.2381 39.299 38.2381C37.3393 38.2381 35.7451 36.6439 35.7451 34.6842C35.7446 32.725 37.3388 31.1303 39.299 31.1303ZM32.122 46.6236C32.5035 42.9823 35.6156 40.1605 39.299 40.1605C42.9824 40.1605 46.0941 42.9823 46.4761 46.6236H32.122ZM11.2642 39.0448C12.7572 38.164 13.7616 36.5395 13.7616 34.6842C13.7616 31.8944 11.4917 29.624 8.70138 29.624C5.91154 29.624 3.6412 31.8938 3.6412 34.6842C3.6412 36.5395 4.64556 38.164 6.13852 39.0448C2.80094 40.0822 0.276448 43.0846 0.00364471 46.7227C-0.023529 47.0856 0.102216 47.4457 0.348378 47.7116C0.594541 47.9775 0.944603 48.1294 1.30852 48.1294H16.0932C16.4571 48.1294 16.8071 47.977 17.0533 47.7116C17.2995 47.4463 17.4252 47.0856 17.398 46.7227C17.1263 43.0846 14.6018 40.0827 11.2642 39.0448ZM8.70138 31.1303C10.6611 31.1303 12.2553 32.7245 12.2553 34.6842C12.2553 36.6439 10.6611 38.2381 8.70138 38.2381C6.74167 38.2381 5.14748 36.6439 5.14748 34.6842C5.14748 32.725 6.74167 31.1303 8.70138 31.1303ZM1.52484 46.6236C1.90634 42.9823 5.01853 40.1605 8.70191 40.1605C12.3853 40.1605 15.4969 42.9823 15.879 46.6236H1.52484Z" fill="black"/>
<path fill-rule="evenodd" clip-rule="evenodd" d="M33.2562 36.9402C33.3074 37.1512 33.2647 37.3739 33.1395 37.5513C33.0149 37.7288 32.8193 37.8433 32.6019 37.8657L29.9943 38.1396C29.9677 38.1422 29.941 38.1438 29.9149 38.1438C29.5339 38.1438 29.2073 37.8561 29.1668 37.4693C29.1237 37.0558 29.4237 36.6855 29.8371 36.6418L30.338 36.5891L27.1022 34.477C26.889 34.3384 26.7606 34.1008 26.7606 33.8466V29.4845H21.2385V33.8466C21.2385 34.1008 21.1101 34.3379 20.897 34.477L17.6611 36.5891L18.162 36.6418C18.5755 36.6855 18.876 37.0558 18.8323 37.4693C18.7913 37.8561 18.4646 38.1438 18.0842 38.1438C18.0581 38.1438 18.0315 38.1422 18.0048 38.1396L15.3972 37.8657C15.1814 37.8428 14.9859 37.7282 14.8607 37.5508C14.7354 37.3734 14.6928 37.1507 14.744 36.9397L15.3604 34.3912C15.4585 33.9873 15.865 33.7385 16.2694 33.8365C16.6733 33.9346 16.9216 34.3416 16.8241 34.7455L16.6536 35.4494L19.7327 33.4396V29.4855H14.8862C13.9234 29.4855 13.1396 28.7023 13.1396 27.7389V6.44698C13.1396 5.97384 13.3165 5.54652 13.6512 5.21191L18.2217 0.641389C18.5563 0.306779 18.9836 0.129883 19.4567 0.129883H33.1134C34.0762 0.129883 34.86 0.913126 34.86 1.87646V27.7395C34.86 28.7023 34.0768 29.4861 33.1134 29.4861H28.2669V33.4401L31.3466 35.4499L31.1761 34.746C31.0781 34.3416 31.3263 33.9346 31.7308 33.8371C32.1352 33.7385 32.5417 33.9878 32.6397 34.3917L33.2562 36.9402ZM14.6459 27.7389V6.78852H18.1481C19.0582 6.78852 19.7983 6.04843 19.7983 5.13838V1.63563H33.1134C33.244 1.63563 33.3543 1.74592 33.3543 1.87646V27.7389C33.3543 27.8695 33.244 27.9798 33.1134 27.9798H14.8868C14.7562 27.9798 14.6459 27.8695 14.6459 27.7389ZM31.1841 20.1751C31.5997 20.1751 31.937 19.8378 31.937 19.4222C31.937 19.0066 31.5997 18.6693 31.1841 18.6693H16.8161C16.4005 18.6693 16.0632 19.0066 16.0632 19.4222C16.0632 19.8378 16.4005 20.1751 16.8161 20.1751H31.1841ZM31.1841 5.17834C31.5997 5.17834 31.937 4.84107 31.937 4.42547C31.937 4.00987 31.5997 3.67259 31.1836 3.67259H21.9322C21.5166 3.67259 21.1793 4.00987 21.1793 4.42547C21.1793 4.84107 21.5166 5.17834 21.9322 5.17834H31.1841ZM31.1841 14.1766C31.5997 14.1766 31.937 13.8393 31.937 13.4237C31.937 13.0081 31.5997 12.6708 31.1836 12.6708H16.8161C16.4005 12.6708 16.0632 13.0081 16.0632 13.4237C16.0632 13.8393 16.4005 14.1766 16.8161 14.1766H31.1841ZM31.1841 11.1773C31.5997 11.1773 31.937 10.8401 31.937 10.4245C31.937 10.0083 31.5997 9.6716 31.1836 9.6716H16.8161C16.4005 9.6716 16.0632 10.0089 16.0632 10.4245C16.0632 10.8401 16.4005 11.1773 16.8161 11.1773H31.1841ZM31.1841 17.1758C31.5997 17.1758 31.937 16.8385 31.937 16.4229C31.937 16.0073 31.5997 15.6701 31.1841 15.6701H16.8161C16.4005 15.6701 16.0632 16.0073 16.0632 16.4229C16.0632 16.8385 16.4005 17.1758 16.8161 17.1758H31.1841ZM31.1841 8.17811C31.5997 8.17811 31.937 7.84083 31.937 7.42524C31.937 7.0091 31.5997 6.67183 31.1836 6.67236H21.9322C21.5166 6.67236 21.1793 7.00964 21.1793 7.42524C21.1793 7.84083 21.5166 8.17811 21.9322 8.17811H31.1841ZM30.7333 25.2544C31.1351 25.1468 31.3732 24.7339 31.2656 24.3321C31.158 23.9304 30.7456 23.6922 30.3433 23.7982C29.2542 24.0902 29.0347 23.8883 28.731 23.6085C28.4656 23.364 28.0639 22.9942 27.3531 22.9686C26.5161 22.9404 25.8889 23.5212 25.3369 24.0348C24.9235 24.42 24.4956 24.818 24.1264 24.818C23.9617 24.818 23.8791 24.818 23.6841 23.9261L23.6838 23.9245C23.5116 23.14 23.2238 21.8284 21.7409 21.8284C20.6971 21.8284 20.1404 22.3852 19.6933 22.8328C19.1893 23.3373 18.754 23.7732 17.4613 23.7732C17.0457 23.7732 16.7085 24.1105 16.7085 24.5261C16.7085 24.9416 17.0457 25.2789 17.4613 25.2789C19.3768 25.2789 20.1746 24.4811 20.7574 23.8983L20.7584 23.8973C21.1586 23.4972 21.3371 23.3347 21.7409 23.3347C21.928 23.3347 22.0132 23.3347 22.213 24.2485C22.383 25.0253 22.6675 26.3248 24.1264 26.3248C25.0881 26.3248 25.7952 25.6668 26.3631 25.1377L26.3683 25.133C26.6855 24.8381 27.0767 24.4744 27.2924 24.4744H27.2993C27.4421 24.4797 27.4927 24.5159 27.7112 24.7173C28.2845 25.2454 28.9894 25.7217 30.7333 25.2544ZM18.2925 5.13785V2.7002L15.7105 5.28224H18.1481C18.2265 5.28224 18.2925 5.21617 18.2925 5.13785Z" fill="#671414"/>
</svg>
