<svg width="48" height="48" viewBox="0 0 48 48" fill="none" xmlns="http://www.w3.org/2000/svg">
<g clip-path="url(#clip0_2006_261)">
<g clip-path="url(#clip1_2006_261)">
<path d="M29.2752 41.143H28.484V40.3518C28.484 38.4418 27.1221 36.8429 25.3192 36.4761V34.0222C25.3192 33.5854 24.9648 33.231 24.528 33.231H5.53895C5.10214 33.231 4.74774 33.5854 4.74774 34.0222V36.4761C2.94484 36.8429 1.58291 38.4418 1.58291 40.3518V41.143H0.791697C0.354887 41.143 0.000488281 41.4974 0.000488281 41.9343V46.6815C0.000488281 47.1183 0.354887 47.4727 0.791697 47.4727H29.2752C29.712 47.4727 30.0664 47.1183 30.0664 46.6815V41.9343C30.0664 41.4974 29.712 41.143 29.2752 41.143ZM6.33016 34.8134H23.7368V36.3958H6.33016V34.8134ZM28.484 45.8903H1.58291V42.7255H3.95653C4.39334 42.7255 4.74774 42.3711 4.74774 41.9343C4.74774 41.4974 4.39334 41.143 3.95653 41.143H3.16532V40.3518C3.16532 39.0434 4.23055 37.9782 5.53895 37.9782H24.528C25.8364 37.9782 26.9016 39.0434 26.9016 40.3518V41.143H15.0335C14.5966 41.143 14.2422 41.4974 14.2422 41.9343C14.2422 42.3711 14.5966 42.7255 15.0335 42.7255H28.484V45.8903Z" fill="black"/>
<path d="M46.5584 36.7771L27.7487 18.8019C27.4335 18.499 26.9307 18.5114 26.6299 18.8266C26.3291 19.1419 26.3394 19.6426 26.6567 19.9455L45.4664 37.9207C45.7672 38.2091 45.9362 38.5965 45.9403 39.0106C45.9444 39.4248 45.7857 39.8142 45.4911 40.1068C45.1965 40.4014 44.8029 40.5601 44.3908 40.5559C43.9767 40.5518 43.5914 40.3829 43.305 40.082L23.6071 19.4695L27.0253 16.0512C27.3344 15.7421 27.3344 15.2414 27.0253 14.9324L19.1955 7.10045C18.8865 6.79139 18.3858 6.79139 18.0767 7.10045C17.7676 7.40952 17.7676 7.91023 18.0767 8.21927L25.3479 15.4926L20.8726 19.9679L14.1595 13.2532L16.9576 10.4551C17.2666 10.146 17.2666 9.6453 16.9576 9.33625C16.6485 9.02718 16.1478 9.02718 15.8388 9.33625L12.4823 12.6927C12.1732 13.0018 12.1732 13.5025 12.4823 13.8115L20.3142 21.6456C20.4626 21.7939 20.6645 21.8763 20.8746 21.8763C21.0848 21.8763 21.2847 21.7939 21.4351 21.6456L22.49 20.5906L42.1611 41.1763C42.7442 41.7883 43.5313 42.1303 44.3719 42.1406H44.409C45.2373 42.1406 46.0182 41.8171 46.6096 41.2278C47.2071 40.6302 47.5326 39.837 47.5224 38.9942C47.512 38.1494 47.1703 37.3622 46.5584 36.7771Z" fill="#671414"/>
<path d="M23.1105 7.65905C24.0356 6.73391 24.0356 5.22772 23.1105 4.30258C22.8117 4.00382 22.6469 3.60616 22.6469 3.18376C22.6469 2.76137 22.8117 2.3637 23.1105 2.06494C23.7286 1.44885 24.73 1.44885 25.3481 2.06494L32.0628 8.77808C32.6789 9.39417 32.6789 10.3996 32.0628 11.0157C31.4633 11.6132 30.4248 11.6132 29.8252 11.0157C29.376 10.5666 28.7805 10.3214 28.1459 10.3214H28.1439C27.5093 10.3214 26.9138 10.5686 26.4667 11.0157C26.0175 11.4649 25.7723 12.0604 25.7723 12.695C25.7723 13.3296 26.0196 13.9251 26.4687 14.3742C26.6233 14.5288 26.8252 14.605 27.0271 14.605C27.229 14.605 27.433 14.5288 27.5876 14.3722C27.8966 14.0631 27.8966 13.5624 27.5855 13.2534C27.4371 13.105 27.3547 12.9051 27.3547 12.695C27.3547 12.4828 27.4371 12.285 27.5876 12.1345C27.7359 11.9862 27.9337 11.9038 28.1459 11.9038C28.3582 11.9038 28.556 11.9862 28.7064 12.1345C29.3039 12.7321 30.0992 13.0617 30.944 13.0617C31.7888 13.0617 32.5841 12.7321 33.1817 12.1345C33.7792 11.537 34.1089 10.7417 34.1089 9.8969C34.1089 9.0521 33.7792 8.25677 33.1817 7.65925L26.4669 0.946112C25.8694 0.348591 25.0741 0.0189209 24.2293 0.0189209C23.3845 0.0189209 22.5892 0.348591 21.9916 0.946112C21.3941 1.54363 21.0645 2.33896 21.0645 3.18376C21.0645 4.02856 21.3941 4.82388 21.9916 5.4214C22.3007 5.73047 22.3007 6.23117 21.9916 6.54022C21.6826 6.84929 21.1798 6.84929 20.8728 6.54022C20.5638 6.23115 20.0631 6.23115 19.754 6.54022C19.4449 6.84929 19.4449 7.35 19.7561 7.65904C20.6791 8.58418 22.1853 8.58418 23.1105 7.65905Z" fill="#671414"/>
<path d="M13.0416 27.7996C13.6392 28.3972 14.4345 28.7268 15.2793 28.7268C16.1241 28.7268 16.9194 28.3972 17.5169 27.7996C18.1145 27.2021 18.4441 26.4068 18.4441 25.562C18.4441 24.7172 18.1145 23.9219 17.5169 23.3243C17.3686 23.1739 17.2862 22.9761 17.2862 22.7639C17.2862 22.5537 17.3686 22.3539 17.5169 22.2055C17.8157 21.9068 18.337 21.9068 18.6358 22.2055C18.9448 22.5146 19.4455 22.5146 19.7546 22.2055C20.0636 21.8965 20.0636 21.3957 19.7546 21.0867C18.8294 20.1616 17.3232 20.1616 16.3981 21.0867C15.9489 21.5359 15.7017 22.1314 15.7017 22.766C15.7017 23.4006 15.9489 23.996 16.3961 24.4452C16.6948 24.744 16.8597 25.1416 16.8597 25.564C16.8597 25.9864 16.6948 26.3841 16.3961 26.6829C15.78 27.299 14.7766 27.299 14.1584 26.6829L7.44738 19.966C6.83129 19.3499 6.83129 18.3445 7.44738 17.7284C8.04696 17.1309 9.08544 17.1309 9.68502 17.7284C10.6102 18.6535 12.1164 18.6535 13.0415 17.7284C13.4907 17.2792 13.7359 16.6837 13.7359 16.0491C13.7359 15.4145 13.4886 14.8191 13.0394 14.3699C12.7304 14.0608 12.2297 14.0608 11.9206 14.3699C11.6115 14.6789 11.6115 15.1796 11.9227 15.4887C12.071 15.637 12.1534 15.8369 12.1534 16.0471C12.1534 16.2593 12.071 16.4571 11.9227 16.6075C11.6136 16.9166 11.1129 16.9166 10.8038 16.6075C10.2063 16.01 9.411 15.6803 8.5662 15.6803C7.7214 15.6803 6.92608 16.01 6.32856 16.6075C5.73104 17.205 5.40137 18.0003 5.40137 18.8451C5.40137 19.6899 5.73104 20.4853 6.32856 21.0828L13.0416 27.7996Z" fill="#671414"/>
<path d="M37.2535 7.91229C37.3936 7.91229 37.5337 7.8752 37.6615 7.79896L42.8373 4.6836C43.2123 4.45902 43.3318 3.97273 43.1072 3.59775C42.8806 3.22275 42.3943 3.10324 42.0214 3.32783L36.8456 6.44319C36.4706 6.66778 36.351 7.15406 36.5756 7.52904C36.724 7.7763 36.9856 7.91229 37.2535 7.91229Z" fill="#671414"/>
<path d="M35.6707 4.74742C35.4687 4.74742 35.2648 4.67118 35.1102 4.51665C34.8012 4.20758 34.8012 3.70687 35.1102 3.39782L38.1432 0.364857C38.4523 0.0557898 38.953 0.0557898 39.262 0.364857C39.5711 0.673924 39.5711 1.17463 39.262 1.48368L36.229 4.51665C36.0766 4.67118 35.8726 4.74742 35.6707 4.74742Z" fill="#671414"/>
<path d="M45.8905 2.37348C45.8905 3.42843 44.3081 3.42843 44.3081 2.37348C44.3081 1.31854 45.8905 1.31854 45.8905 2.37348Z" fill="#671414"/>
</g>
</g>
<defs>
<clipPath id="clip0_2006_261">
<rect width="48" height="48" fill="white" transform="translate(0.000488281)"/>
</clipPath>
<clipPath id="clip1_2006_261">
<rect width="48" height="47.4725" fill="white" transform="translate(0.000976562)"/>
</clipPath>
</defs>
</svg>
