<svg width="48" height="49" viewBox="0 0 48 49" fill="none" xmlns="http://www.w3.org/2000/svg">
<g clip-path="url(#clip0_2006_2458)">
<path d="M8.32685 45.0317H39.6738C39.9442 45.0317 40.1636 44.8124 40.1636 44.5419V5.3582C40.1636 5.08774 39.9442 4.86841 39.6738 4.86841H35.7554C35.4849 4.86841 35.2656 5.08774 35.2656 5.3582V40.1337H8.32685C8.05628 40.1337 7.83705 40.3529 7.83705 40.6235V44.5419C7.83705 44.8124 8.05628 45.0317 8.32685 45.0317ZM39.184 44.0521H8.81664V41.1133H35.7554C36.0259 41.1133 36.2452 40.8941 36.2452 40.6235V5.848H39.184V44.0521Z" fill="black"/>
<path d="M12.2453 48.9499H43.5922C43.8627 48.9499 44.082 48.7306 44.082 48.4601V9.27642C44.082 9.00595 43.8627 8.78662 43.5922 8.78662H39.6739C39.4034 8.78662 39.1841 9.00595 39.1841 9.27642V44.0519H12.2453C11.9747 44.0519 11.7555 44.2712 11.7555 44.5417V48.4601C11.7555 48.7306 11.9747 48.9499 12.2453 48.9499ZM43.1024 47.9703H12.7351V45.0315H39.6739C39.9443 45.0315 40.1637 44.8123 40.1637 44.5417V9.76621H43.1024V47.9703Z" fill="black"/>
<path d="M4.40839 41.1132H35.7553C36.0258 41.1132 36.2451 40.894 36.2451 40.6234V1.43975C36.2451 1.16928 36.0258 0.949951 35.7553 0.949951H12.2451C11.9746 0.949951 11.7553 1.16928 11.7553 1.43975V8.78668H4.40839C4.13783 8.78668 3.91859 9.00601 3.91859 9.27648V40.6234C3.91859 40.894 4.13783 41.1132 4.40839 41.1132ZM35.2655 40.1336H4.89819V9.76628H12.2451C12.5157 9.76628 12.7349 9.54695 12.7349 9.27648V1.92954H35.2655V40.1336Z" fill="black"/>
<path d="M4.40833 9.76628H12.2451C12.5156 9.76628 12.7349 9.54695 12.7349 9.27649V1.43976C12.7349 1.24168 12.6155 1.063 12.4325 0.987184C12.2498 0.91156 12.0388 0.953193 11.8988 1.09337L4.06205 8.9301C3.92187 9.07019 3.88004 9.2809 3.95586 9.46389C4.03158 9.64697 4.21026 9.76628 4.40833 9.76628ZM11.7553 8.78669H5.5908L11.7553 2.62222V8.78669Z" fill="black"/>
<path d="M8.32708 37.1947H18.123C18.3936 37.1947 18.6128 36.9754 18.6128 36.7049C18.6128 36.4343 18.3936 36.2151 18.123 36.2151H8.32708C8.05652 36.2151 7.83729 36.4343 7.83729 36.7049C7.83729 36.9754 8.05652 37.1947 8.32708 37.1947Z" fill="#671414"/>
<path d="M8.32715 29.358H31.8374C32.1078 29.358 32.3271 29.1388 32.3271 28.8682C32.3271 28.5977 32.1078 28.3784 31.8374 28.3784H8.32715C8.05659 28.3784 7.83735 28.5977 7.83735 28.8682C7.83735 29.1388 8.05659 29.358 8.32715 29.358Z" fill="#671414"/>
<path d="M8.32715 25.4396H31.8374C32.1078 25.4396 32.3271 25.2203 32.3271 24.9498C32.3271 24.6792 32.1078 24.46 31.8374 24.46H8.32715C8.05659 24.46 7.83735 24.6792 7.83735 24.9498C7.83735 25.2203 8.05659 25.4396 8.32715 25.4396Z" fill="#671414"/>
<path d="M8.32715 21.5213H31.8374C32.1078 21.5213 32.3271 21.302 32.3271 21.0315C32.3271 20.7611 32.1078 20.5417 31.8374 20.5417H8.32715C8.05659 20.5417 7.83735 20.7611 7.83735 21.0315C7.83735 21.302 8.05659 21.5213 8.32715 21.5213Z" fill="#671414"/>
<path d="M16.1639 5.84776H31.8374C32.1078 5.84776 32.3271 5.62843 32.3271 5.35796C32.3271 5.08749 32.1078 4.86816 31.8374 4.86816H16.1639C15.8933 4.86816 15.6741 5.08749 15.6741 5.35796C15.6741 5.62843 15.8933 5.84776 16.1639 5.84776Z" fill="#671414"/>
<path d="M8.32715 33.2765H31.8374C32.1078 33.2765 32.3271 33.0572 32.3271 32.7867C32.3271 32.5161 32.1078 32.2969 31.8374 32.2969H8.32715C8.05659 32.2969 7.83735 32.5161 7.83735 32.7867C7.83735 33.0572 8.05659 33.2765 8.32715 33.2765Z" fill="#671414"/>
<path d="M8.32715 13.6844H31.8374C32.1078 13.6844 32.3271 13.4651 32.3271 13.1946C32.3271 12.9242 32.1078 12.7048 31.8374 12.7048H8.32715C8.05659 12.7048 7.83735 12.9242 7.83735 13.1946C7.83735 13.4651 8.05659 13.6844 8.32715 13.6844Z" fill="#671414"/>
<path d="M16.1639 9.76621H31.8374C32.1078 9.76621 32.3271 9.54688 32.3271 9.27642C32.3271 9.00595 32.1078 8.78662 31.8374 8.78662H16.1639C15.8933 8.78662 15.6741 9.00595 15.6741 9.27642C15.6741 9.54688 15.8933 9.76621 16.1639 9.76621Z" fill="#671414"/>
<path d="M8.32715 17.6029H31.8374C32.1078 17.6029 32.3271 17.3836 32.3271 17.1131C32.3271 16.8426 32.1078 16.6233 31.8374 16.6233H8.32715C8.05659 16.6233 7.83735 16.8426 7.83735 17.1131C7.83735 17.3836 8.05659 17.6029 8.32715 17.6029Z" fill="#671414"/>
</g>
<defs>
<clipPath id="clip0_2006_2458">
<rect width="48" height="48" fill="white" transform="translate(0 0.949951)"/>
</clipPath>
</defs>
</svg>
