<svg width="48" height="49" viewBox="0 0 48 49" fill="none" xmlns="http://www.w3.org/2000/svg">
<path d="M44.3 8.43999H42.2V7.03999C42.2 6.85434 42.1263 6.67629 41.995 6.54502C41.8637 6.41374 41.6856 6.33999 41.5 6.33999H39.4V4.94629C39.4 4.76064 39.3263 4.58259 39.195 4.45132C39.0637 4.32004 38.8857 4.24629 38.7 4.24629L35.9 4.23999C35.7143 4.23999 35.5363 4.31374 35.405 4.44502C35.2738 4.57629 35.2 4.75434 35.2 4.93999V6.33999H6.5C5.57208 6.3411 4.68249 6.71021 4.02635 7.36634C3.37022 8.02248 3.00111 8.91207 3 9.83999V42.04C3.00111 42.9679 3.37022 43.8575 4.02635 44.5136C4.68249 45.1698 5.57208 45.5389 6.5 45.54H11.4C11.5857 45.54 11.7637 45.4662 11.895 45.335C12.0262 45.2037 12.1 45.0256 12.1 44.84V42.74H44.3C44.4856 42.74 44.6637 42.6662 44.795 42.535C44.9263 42.4037 45 42.2256 45 42.04V9.13999C45 8.95434 44.9263 8.77629 44.795 8.64502C44.6637 8.51374 44.4856 8.43999 44.3 8.43999ZM38 10.54H36.6V9.13999H38V10.54ZM38 11.94V27.34H36.6V11.94H38ZM37.965 28.74L37.3 30.7266L36.6378 28.7358L37.965 28.74ZM38 5.64489V7.73999H36.6V5.63999L38 5.64489ZM6.5 7.73999H35.2V28.74C35.2002 28.8149 35.2123 28.8893 35.2357 28.9605L36.6357 33.1605C36.6817 33.3005 36.7708 33.4225 36.8902 33.5089C37.0096 33.5954 37.1533 33.6419 37.3007 33.6419C37.4481 33.6419 37.5918 33.5954 37.7112 33.5089C37.8306 33.4225 37.9197 33.3005 37.9657 33.1605L39.3657 28.9668C39.3889 28.8956 39.4004 28.8212 39.4 28.7463V7.73999H40.8V38.54H6.5C5.74017 38.5426 5.00227 38.7949 4.4 39.2582V9.83999C4.4 9.28304 4.62125 8.74889 5.01508 8.35507C5.4089 7.96124 5.94305 7.73999 6.5 7.73999ZM43.6 41.34H5.8V42.74H10.7V44.14H6.5C5.94305 44.14 5.4089 43.9187 5.01508 43.5249C4.62125 43.1311 4.4 42.5969 4.4 42.04C4.4 41.483 4.62125 40.9489 5.01508 40.5551C5.4089 40.1612 5.94305 39.94 6.5 39.94H41.5C41.6856 39.94 41.8637 39.8662 41.995 39.735C42.1263 39.6037 42.2 39.4256 42.2 39.24V9.83999H43.6V41.34Z" fill="black"/>
<path d="M7.9002 35.04H11.4002V33.64H8.6002V22.44H11.4002V21.04H8.6002V12.64H17.0002V21.04H14.2002V22.44H21.9002V26.64H23.3002V22.44H26.1002V21.04H18.4002V12.64H31.0002V21.04H28.9002V22.44H31.0002V33.64H23.3002V29.44H21.9002V33.64H14.2002V35.04H31.7002C31.8858 35.04 32.0639 34.9662 32.1952 34.835C32.3264 34.7037 32.4002 34.5256 32.4002 34.34V11.94C32.4002 11.7543 32.3264 11.5763 32.1952 11.445C32.0639 11.3137 31.8858 11.24 31.7002 11.24H7.9002C7.71454 11.24 7.5365 11.3137 7.40522 11.445C7.27395 11.5763 7.2002 11.7543 7.2002 11.94V34.34C7.2002 34.5256 7.27395 34.7037 7.40522 34.835C7.5365 34.9662 7.71454 35.04 7.9002 35.04Z" fill="#671414"/>
<path d="M42.2 44.1401H24V45.5401H42.2V44.1401Z" fill="#671414"/>
<path d="M27.4998 3.54004H9.2998V4.94004H27.4998V3.54004Z" fill="#671414"/>
<path d="M22.6002 44.1401H21.2002V45.5401H22.6002V44.1401Z" fill="#671414"/>
</svg>
