<svg width="48" height="49" viewBox="0 0 48 49" fill="none" xmlns="http://www.w3.org/2000/svg">
<g clip-path="url(#clip0_2006_2762)">
<path d="M47.3429 39.0438H37.836V23.2097C37.836 22.8462 37.5413 22.5535 37.1797 22.5535C36.8181 22.5535 36.5235 22.8481 36.5235 23.2097V39.0438H20.5308C20.1672 39.0438 19.8745 39.3384 19.8745 39.7V42.7C19.8745 43.3658 19.7253 44.0087 19.4326 44.6094C19.2738 44.9347 19.4077 45.3288 19.7349 45.4876C20.0601 45.6464 20.4543 45.5125 20.6131 45.1853C20.9938 44.4047 21.1871 43.5686 21.1871 42.7V40.3562H46.6852V43.6872C46.6852 45.524 45.1929 47.0182 43.3581 47.0182H15.4129C13.0634 47.0182 11.1521 45.105 11.1521 42.7555V6.68463C11.1521 4.97799 10.3791 3.44738 9.1661 2.42381H32.2609C33.8776 2.42381 35.3374 3.32689 36.0701 4.78094C36.1849 5.01053 36.4164 5.14255 36.6575 5.14255C36.757 5.14255 36.8584 5.11959 36.9521 5.07176C37.2755 4.90913 37.4075 4.5131 37.243 4.18974C36.2863 2.28988 34.375 1.10938 32.2588 1.10938H5.57484C2.50025 1.10938 -0.000488281 3.61002 -0.000488281 6.6847V11.7164C-0.000488281 12.0799 0.294152 12.3726 0.655738 12.3726H9.83741V42.753C9.83741 45.8276 12.3381 48.3303 15.4127 48.3303H43.3579C45.9179 48.3303 47.9995 46.2468 47.9995 43.6868V39.6996C47.9995 39.338 47.7049 39.0434 47.3433 39.0434L47.3429 39.0438ZM1.3135 6.68506C1.3135 4.33557 3.22482 2.42425 5.57432 2.42425C7.92572 2.42425 9.83704 4.33557 9.83704 6.68506V11.0607H1.31365L1.3135 6.68506Z" fill="black"/>
<path d="M15.2425 7.51489C14.8809 7.51489 14.5862 7.8076 14.5862 8.17112C14.5862 8.5327 14.8809 8.82734 15.2425 8.82734H25.2122C25.5738 8.82734 25.8684 8.53272 25.8684 8.17112C25.8684 7.80953 25.5757 7.51489 25.2122 7.51489H15.2425Z" fill="#671414"/>
<path d="M15.2425 12.5676C14.8809 12.5676 14.5862 12.8603 14.5862 13.2238C14.5862 13.5873 14.8809 13.8801 15.2425 13.8801H25.2122C25.5738 13.8801 25.8684 13.5854 25.8684 13.2238C25.8684 12.8622 25.5757 12.5676 25.2122 12.5676H15.2425Z" fill="#671414"/>
<path d="M14.5862 18.1281C14.5862 17.7646 14.8809 17.4719 15.2425 17.4719H25.2122C25.5757 17.4719 25.8684 17.7665 25.8684 18.1281C25.8684 18.4897 25.5738 18.7843 25.2122 18.7843H15.2425C14.8809 18.7843 14.5862 18.4897 14.5862 18.1281Z" fill="#671414"/>
<path d="M14.5862 23.1808C14.5862 22.8173 14.8809 22.5246 15.2425 22.5246H25.2122C25.5757 22.5246 25.8684 22.8192 25.8684 23.1808C25.8684 23.5424 25.5738 23.837 25.2122 23.837H15.2425C14.8809 23.837 14.5862 23.5443 14.5862 23.1808Z" fill="#671414"/>
<path d="M33.0872 28.2316C33.0872 28.5951 32.7926 28.8878 32.431 28.8878H15.2422C14.8786 28.8878 14.5859 28.5932 14.5859 28.2316C14.5859 27.8681 14.8806 27.5753 15.2422 27.5753H32.431C32.7945 27.5753 33.0872 27.8681 33.0872 28.2316Z" fill="#671414"/>
<path d="M33.0872 33.2843C33.0872 33.6478 32.7926 33.9405 32.431 33.9405L15.2422 33.9424C14.8786 33.9424 14.5859 33.6478 14.5859 33.2862C14.5859 32.9246 14.8806 32.63 15.2422 32.63H32.431C32.7945 32.6281 33.0872 32.9227 33.0872 33.2843Z" fill="#671414"/>
<path fill-rule="evenodd" clip-rule="evenodd" d="M29.6895 13.8341C29.6895 18.0738 33.1372 21.5233 37.3768 21.5233C41.6164 21.5233 45.066 18.0737 45.066 13.8341C45.066 9.59439 41.6164 6.14478 37.3768 6.14478C33.1371 6.14478 29.6895 9.59439 29.6895 13.8341ZM43.75 13.8341C43.75 10.3192 40.8914 7.45889 37.3748 7.45889C33.8619 7.45889 31.0016 10.3175 31.0016 13.8341C31.0016 17.3489 33.8601 20.2092 37.3748 20.2092C40.8916 20.2092 43.7519 17.3487 43.75 13.8341Z" fill="#671414"/>
<path d="M39.3588 10.9217L34.4647 15.8158C34.2083 16.0721 34.2083 16.4892 34.4646 16.7456C34.5928 16.8738 34.7612 16.9388 34.9296 16.9388C35.0979 16.9388 35.2663 16.8738 35.3945 16.7456L40.2886 11.8515C40.545 11.5932 40.545 11.178 40.2886 10.9217C40.0303 10.6653 39.6151 10.6653 39.3588 10.9217Z" fill="#671414"/>
<path d="M33.6821 11.3943C33.6821 11.7291 33.8122 12.0448 34.0495 12.282C34.2944 12.5269 34.6158 12.6494 34.9372 12.6494C35.2587 12.6494 35.5801 12.5269 35.825 12.282C36.0641 12.0448 36.1942 11.7291 36.1942 11.3943C36.1942 11.0594 36.0641 10.7438 35.8269 10.5065C35.5896 10.2693 35.274 10.1392 34.9391 10.1392C34.6043 10.1392 34.2886 10.2693 34.0514 10.5065C33.8122 10.7438 33.6821 11.0594 33.6821 11.3943Z" fill="#671414"/>
<path d="M40.7055 15.3853C40.4663 15.1461 40.1525 15.016 39.8158 15.016C39.4791 15.016 39.1634 15.1481 38.9262 15.3834C38.6889 15.6206 38.5569 15.9382 38.5588 16.275C38.5588 16.6098 38.6908 16.9236 38.9262 17.157C39.1653 17.3961 39.4791 17.5262 39.8158 17.5262C40.1525 17.5262 40.4682 17.3961 40.7055 17.1589C41.1914 16.6729 41.1934 15.8789 40.7074 15.3872L40.7055 15.3853Z" fill="#671414"/>
</g>
<defs>
<clipPath id="clip0_2006_2762">
<rect width="48" height="48" fill="white" transform="translate(0 0.719727)"/>
</clipPath>
</defs>
</svg>
