<svg width="48" height="49" viewBox="0 0 48 49" fill="none" xmlns="http://www.w3.org/2000/svg">
<g clip-path="url(#clip0_2006_3347)">
<path d="M28.905 5.21484C28.425 5.21484 28.035 5.60484 28.035 6.08484C28.035 6.56484 28.425 6.95484 28.905 6.95484C38.475 6.95484 46.26 14.7398 46.26 24.3098C46.26 33.8798 38.475 41.6648 28.905 41.6648C21.705 41.6648 15.3075 37.1948 12.735 30.6098L13.89 31.1273C14.3325 31.3223 14.8425 31.1273 15.0375 30.6848C15.2325 30.2423 15.0375 29.7323 14.595 29.5373L11.625 28.2098C11.1975 28.0223 10.695 28.2023 10.485 28.6223L9.16497 31.3223C8.95497 31.7573 9.13496 32.2748 9.56246 32.4848C9.68246 32.5448 9.81747 32.5748 9.94497 32.5748C10.2675 32.5748 10.575 32.3948 10.725 32.0873L11.115 31.2848C13.95 38.5073 20.9925 43.4048 28.89 43.4048C39.435 43.4048 48 34.8398 48 24.3098C48 13.7798 39.435 5.21484 28.905 5.21484Z" fill="black"/>
<path d="M22.0575 20.0199V8.93494C22.0575 8.45494 21.6675 8.06494 21.1875 8.06494H0.87C0.39 8.06494 0 8.45494 0 8.93494V20.0199C0 20.4999 0.39 20.8899 0.87 20.8899H21.1875C21.6675 20.8899 22.0575 20.4999 22.0575 20.0199ZM20.3175 19.1499H1.74V9.80494H20.3175V19.1499Z" fill="#671414"/>
<path d="M11.0326 17.5974C12.7501 17.5974 14.1526 16.1949 14.1526 14.4774C14.1526 12.7599 12.7501 11.3574 11.0326 11.3574C9.3151 11.3574 7.9126 12.7599 7.9126 14.4774C7.9126 16.1949 9.3076 17.5974 11.0326 17.5974ZM11.0326 13.0974C11.7901 13.0974 12.4126 13.7199 12.4126 14.4774C12.4126 15.2349 11.7901 15.8574 11.0326 15.8574C10.2751 15.8574 9.6526 15.2349 9.6526 14.4774C9.6526 13.7124 10.2676 13.0974 11.0326 13.0974Z" fill="#671414"/>
<path d="M19.5451 33.7073C19.7176 33.8798 19.9351 33.9623 20.1601 33.9623C20.3851 33.9623 20.6026 33.8798 20.7751 33.7073L29.3401 25.1348C29.5051 24.9698 29.5951 24.7523 29.5951 24.5198V12.1373C29.5951 11.6573 29.2051 11.2673 28.7251 11.2673C28.2451 11.2673 27.8551 11.6573 27.8551 12.1373V24.1598L19.5451 32.4698C19.2076 32.8148 19.2076 33.3623 19.5451 33.7073Z" fill="#671414"/>
</g>
<defs>
<clipPath id="clip0_2006_3347">
<rect width="48" height="39" fill="white" transform="translate(0 4.80981)"/>
</clipPath>
</defs>
</svg>
