<svg width="80" height="17" viewBox="0 0 80 17" fill="none" xmlns="http://www.w3.org/2000/svg">
<path d="M70.7562 13.673V3.58195H73.3368V7.43351H77.4194V3.58195H80V13.673H77.4194V9.59038H73.3368V13.673H70.7562Z" fill="white"/>
<path d="M63.7379 13.8656C62.9162 13.8656 62.178 13.7308 61.5232 13.4612C60.8684 13.1787 60.31 12.7936 59.8478 12.3057C59.3984 11.8179 59.0518 11.2594 58.8079 10.6303C58.5639 10.0012 58.442 9.34003 58.442 8.64675C58.442 7.94063 58.5639 7.27302 58.8079 6.64394C59.0518 6.01485 59.3984 5.45637 59.8478 4.96851C60.31 4.48065 60.8684 4.10191 61.5232 3.8323C62.178 3.54985 62.9162 3.40863 63.7379 3.40863C64.5595 3.40863 65.2913 3.54985 65.9332 3.8323C66.588 4.10191 67.1465 4.48065 67.6087 4.96851C68.0709 5.45637 68.4175 6.01485 68.6486 6.64394C68.8925 7.27302 69.0145 7.94063 69.0145 8.64675C69.0145 9.34003 68.8925 10.0012 68.6486 10.6303C68.4175 11.2594 68.0709 11.8179 67.6087 12.3057C67.1593 12.7936 66.6073 13.1787 65.9525 13.4612C65.2977 13.7308 64.5595 13.8656 63.7379 13.8656ZM61.0995 8.64675C61.0995 9.23732 61.2151 9.7637 61.4462 10.2259C61.6773 10.6752 61.9918 11.0283 62.3898 11.2851C62.7878 11.5418 63.2372 11.6702 63.7379 11.6702C64.2257 11.6702 64.6686 11.5418 65.0666 11.2851C65.4646 11.0155 65.7792 10.656 66.0103 10.2066C66.2542 9.74444 66.3762 9.21806 66.3762 8.62749C66.3762 8.04976 66.2542 7.52979 66.0103 7.06761C65.7792 6.60542 65.4646 6.24594 65.0666 5.98917C64.6686 5.7324 64.2257 5.60402 63.7379 5.60402C63.2372 5.60402 62.7878 5.73882 62.3898 6.00843C61.9918 6.2652 61.6773 6.62468 61.4462 7.08687C61.2151 7.53621 61.0995 8.05617 61.0995 8.64675Z" fill="white"/>
<path d="M48.6211 13.673V3.58195H51.2016V7.39499H52.0682L54.8028 3.58195H57.6145L54.0325 8.45417L57.9996 13.673H55.0532L52.0297 9.66741H51.2016V13.673H48.6211Z" fill="white"/>
<path d="M41.7724 13.8656C40.9636 13.8656 40.2318 13.7308 39.577 13.4612C38.9222 13.1787 38.3638 12.8 37.9016 12.325C37.4394 11.8371 37.0799 11.2851 36.8231 10.6688C36.5792 10.0397 36.4572 9.37854 36.4572 8.68526C36.4572 7.72237 36.6691 6.84293 37.0928 6.04695C37.5293 5.25096 38.1455 4.61545 38.9415 4.14042C39.7503 3.65256 40.7004 3.40863 41.7916 3.40863C42.8958 3.40863 43.8394 3.65256 44.6225 4.14042C45.4057 4.61545 46.0027 5.25096 46.4135 6.04695C46.8372 6.8301 47.049 7.67744 47.049 8.58897C47.049 8.74304 47.0426 8.90352 47.0298 9.07042C47.0169 9.22448 47.0041 9.35287 46.9913 9.45557H39.1918C39.2432 9.96911 39.3908 10.4185 39.6348 10.8036C39.8915 11.1888 40.2125 11.4841 40.5977 11.6895C40.9957 11.8821 41.4193 11.9783 41.8687 11.9783C42.3822 11.9783 42.8637 11.8564 43.313 11.6124C43.7752 11.3557 44.0897 11.0219 44.2566 10.611L46.4713 11.2273C46.2274 11.7408 45.8743 12.1966 45.4121 12.5946C44.9628 12.9926 44.43 13.3071 43.8137 13.5382C43.1975 13.7565 42.517 13.8656 41.7724 13.8656ZM39.1341 7.81866H44.4107C44.3594 7.30512 44.2117 6.86219 43.9678 6.48987C43.7367 6.10472 43.4286 5.80943 43.0434 5.60402C42.6582 5.38576 42.2282 5.27663 41.7531 5.27663C41.2909 5.27663 40.8673 5.38576 40.4821 5.60402C40.1098 5.80943 39.8017 6.10472 39.5577 6.48987C39.3267 6.86219 39.1854 7.30512 39.1341 7.81866Z" fill="white"/>
<path d="M26.185 13.673V3.58195H31.8083C32.5016 3.58195 33.0601 3.69749 33.4837 3.92859C33.9202 4.15968 34.2412 4.46139 34.4466 4.8337C34.652 5.20602 34.7547 5.60402 34.7547 6.02769C34.7547 6.59258 34.6263 7.08687 34.3696 7.51054C34.1256 7.93421 33.7405 8.26159 33.2141 8.49268C33.8047 8.65958 34.2861 8.94845 34.6584 9.35929C35.0308 9.75728 35.2169 10.2837 35.2169 10.9384C35.2169 11.5675 35.0693 12.0875 34.774 12.4983C34.4787 12.8963 34.055 13.1916 33.503 13.3842C32.9509 13.5767 32.2962 13.673 31.5387 13.673H26.185ZM28.6308 11.9206H31.4616C31.6927 11.9206 31.9046 11.8628 32.0972 11.7472C32.2897 11.6317 32.4374 11.4776 32.5401 11.2851C32.6556 11.0925 32.7134 10.8807 32.7134 10.6496C32.7134 10.4056 32.6621 10.1938 32.5593 10.014C32.4566 9.82147 32.309 9.67383 32.1164 9.57112C31.9367 9.45557 31.7248 9.3978 31.4809 9.3978H28.6308V11.9206ZM28.6308 7.78015H31.1535C31.3846 7.78015 31.59 7.72237 31.7698 7.60683C31.9495 7.49128 32.0843 7.33722 32.1742 7.14464C32.2769 6.95206 32.3282 6.74023 32.3282 6.50913C32.3282 6.17533 32.2191 5.8993 32.0009 5.68105C31.7954 5.44995 31.5194 5.33441 31.1728 5.33441H28.6308V7.78015Z" fill="white"/>
<path d="M13.1892 16.1188V11.4199H13.4588C13.7156 11.4199 13.9531 11.3493 14.1713 11.208C14.4024 11.0668 14.6014 10.8293 14.7683 10.4955C14.9481 10.1489 15.0893 9.67383 15.192 9.07042C15.3075 8.46701 15.3846 7.6967 15.4231 6.75948L15.5386 3.58195H23.1069V11.4199H24.5128V16.1188H22.2596V13.673H15.4616V16.1188H13.1892ZM16.7133 11.4199H20.5264V5.75808H17.7918L17.734 7.00983C17.6955 7.85718 17.6313 8.57613 17.5414 9.16671C17.4644 9.74444 17.3553 10.2195 17.2141 10.5918C17.0857 10.9513 16.9188 11.2273 16.7133 11.4199Z" fill="white"/>
<path d="M5.04554 0H7.74163L12.7679 13.673H10.0333L8.76229 10.2644H3.98636L2.73461 13.673H0L5.04554 0ZM8.28085 8.3964L6.39358 2.75386L4.42929 8.3964H8.28085Z" fill="white"/>
</svg>
