<svg width="311" height="80" viewBox="0 0 311 80" fill="none" xmlns="http://www.w3.org/2000/svg">
<path fill-rule="evenodd" clip-rule="evenodd" d="M79.5 0.500783H8.5L11.5 3.50078H76.5V37.5008H79.5V0.500783ZM72.5 71.5008H8.5L11.5 68.5008H69.5V45.0008H72.5V71.5008ZM72.5 9.50078H15.5L18.5 12.5008H69.5V37.5008H72.5V9.50078ZM18.5 60.5008L15.5 63.5008H65.5V45.0008H62.5V60.5008H18.5ZM65.5 18.5008H22.5L25.5 21.5008H62.5V37.5008H65.5V18.5008ZM58.5 55.5008H22.5L25.5 52.5008H55.5V45.0008H58.5V55.5008ZM58.5 27.5008H29.5L32.5 30.5008H55.5V37.5008H58.5V27.5008ZM34 42.5008H310.5V39.5008H37L34 42.5008ZM76.5 76.5008H4.5L1.5 79.5008H79.5V45.0008H76.5V76.5008Z" fill="#932D1B"/>
<path d="M0 42.5008H1.5V79.5008L4.5 76.5008V39.5008H0V42.5008Z" fill="#671414"/>
<path d="M11.5 68.5008V3.50078L8.5 0.500783V71.5008L11.5 68.5008Z" fill="#671414"/>
<path d="M18.5 60.5008V12.5008L15.5 9.50078V63.5008L18.5 60.5008Z" fill="#671414"/>
<path d="M25.5 52.5008V21.5008L22.5 18.5008V55.5008L25.5 52.5008Z" fill="#671414"/>
<path d="M32.5 39.5008V30.5008L29.5 27.5008V42.5008H34L37 39.5008H32.5Z" fill="#671414"/>
<path d="M272.562 32.0008V8.42078H278.592V17.4208H288.132V8.42078H294.162V32.0008H288.132V22.4608H278.592V32.0008H272.562Z" fill="#671414"/>
<path d="M256.162 32.4508C254.242 32.4508 252.517 32.1358 250.987 31.5058C249.457 30.8458 248.152 29.9458 247.072 28.8058C246.022 27.6658 245.212 26.3608 244.642 24.8908C244.072 23.4208 243.787 21.8758 243.787 20.2558C243.787 18.6058 244.072 17.0458 244.642 15.5758C245.212 14.1058 246.022 12.8008 247.072 11.6608C248.152 10.5208 249.457 9.63578 250.987 9.00578C252.517 8.34578 254.242 8.01578 256.162 8.01578C258.082 8.01578 259.792 8.34578 261.292 9.00578C262.822 9.63578 264.127 10.5208 265.207 11.6608C266.287 12.8008 267.097 14.1058 267.637 15.5758C268.207 17.0458 268.492 18.6058 268.492 20.2558C268.492 21.8758 268.207 23.4208 267.637 24.8908C267.097 26.3608 266.287 27.6658 265.207 28.8058C264.157 29.9458 262.867 30.8458 261.337 31.5058C259.807 32.1358 258.082 32.4508 256.162 32.4508ZM249.997 20.2558C249.997 21.6358 250.267 22.8658 250.807 23.9458C251.347 24.9958 252.082 25.8208 253.012 26.4208C253.942 27.0208 254.992 27.3208 256.162 27.3208C257.302 27.3208 258.337 27.0208 259.267 26.4208C260.197 25.7908 260.932 24.9508 261.472 23.9008C262.042 22.8208 262.327 21.5908 262.327 20.2108C262.327 18.8608 262.042 17.6458 261.472 16.5658C260.932 15.4858 260.197 14.6458 259.267 14.0458C258.337 13.4458 257.302 13.1458 256.162 13.1458C254.992 13.1458 253.942 13.4608 253.012 14.0908C252.082 14.6908 251.347 15.5308 250.807 16.6108C250.267 17.6608 249.997 18.8758 249.997 20.2558Z" fill="#671414"/>
<path d="M220.839 32.0008V8.42078H226.869V17.3308H228.894L235.284 8.42078H241.854L233.484 19.8058L242.754 32.0008H235.869L228.804 22.6408H226.869V32.0008H220.839Z" fill="#671414"/>
<path d="M204.835 32.4508C202.945 32.4508 201.235 32.1358 199.705 31.5058C198.175 30.8458 196.87 29.9608 195.79 28.8508C194.71 27.7108 193.87 26.4208 193.27 24.9808C192.7 23.5108 192.415 21.9658 192.415 20.3458C192.415 18.0958 192.91 16.0408 193.9 14.1808C194.92 12.3208 196.36 10.8358 198.22 9.72578C200.11 8.58578 202.33 8.01578 204.88 8.01578C207.46 8.01578 209.665 8.58578 211.495 9.72578C213.325 10.8358 214.72 12.3208 215.68 14.1808C216.67 16.0108 217.165 17.9908 217.165 20.1208C217.165 20.4808 217.15 20.8558 217.12 21.2458C217.09 21.6058 217.06 21.9058 217.03 22.1458H198.805C198.925 23.3458 199.27 24.3958 199.84 25.2958C200.44 26.1958 201.19 26.8858 202.09 27.3658C203.02 27.8158 204.01 28.0408 205.06 28.0408C206.26 28.0408 207.385 27.7558 208.435 27.1858C209.515 26.5858 210.25 25.8058 210.64 24.8458L215.815 26.2858C215.245 27.4858 214.42 28.5508 213.34 29.4808C212.29 30.4108 211.045 31.1458 209.605 31.6858C208.165 32.1958 206.575 32.4508 204.835 32.4508ZM198.67 18.3208H211C210.88 17.1208 210.535 16.0858 209.965 15.2158C209.425 14.3158 208.705 13.6258 207.805 13.1458C206.905 12.6358 205.9 12.3808 204.79 12.3808C203.71 12.3808 202.72 12.6358 201.82 13.1458C200.95 13.6258 200.23 14.3158 199.66 15.2158C199.12 16.0858 198.79 17.1208 198.67 18.3208Z" fill="#671414"/>
<path d="M168.412 32.0008V8.42078H181.552C183.172 8.42078 184.477 8.69078 185.467 9.23078C186.487 9.77078 187.237 10.4758 187.717 11.3458C188.197 12.2158 188.437 13.1458 188.437 14.1358C188.437 15.4558 188.137 16.6108 187.537 17.6008C186.967 18.5908 186.067 19.3558 184.837 19.8958C186.217 20.2858 187.342 20.9608 188.212 21.9208C189.082 22.8508 189.517 24.0808 189.517 25.6108C189.517 27.0808 189.172 28.2958 188.482 29.2558C187.792 30.1858 186.802 30.8758 185.512 31.3258C184.222 31.7758 182.692 32.0008 180.922 32.0008H168.412ZM174.127 27.9058H180.742C181.282 27.9058 181.777 27.7708 182.227 27.5008C182.677 27.2308 183.022 26.8708 183.262 26.4208C183.532 25.9708 183.667 25.4758 183.667 24.9358C183.667 24.3658 183.547 23.8708 183.307 23.4508C183.067 23.0008 182.722 22.6558 182.272 22.4158C181.852 22.1458 181.357 22.0108 180.787 22.0108H174.127V27.9058ZM174.127 18.2308H180.022C180.562 18.2308 181.042 18.0958 181.462 17.8258C181.882 17.5558 182.197 17.1958 182.407 16.7458C182.647 16.2958 182.767 15.8008 182.767 15.2608C182.767 14.4808 182.512 13.8358 182.002 13.3258C181.522 12.7858 180.877 12.5158 180.067 12.5158H174.127V18.2308Z" fill="#671414"/>
<path d="M138.044 37.7158V26.7358H138.674C139.274 26.7358 139.829 26.5708 140.339 26.2408C140.879 25.9108 141.344 25.3558 141.734 24.5758C142.154 23.7658 142.484 22.6558 142.724 21.2458C142.994 19.8358 143.174 18.0358 143.264 15.8458L143.534 8.42078H161.219V26.7358H164.504V37.7158H159.239V32.0008H143.354V37.7158H138.044ZM146.279 26.7358H155.189V13.5058H148.799L148.664 16.4308C148.574 18.4108 148.424 20.0908 148.214 21.4708C148.034 22.8208 147.779 23.9308 147.449 24.8008C147.149 25.6408 146.759 26.2858 146.279 26.7358Z" fill="#671414"/>
<path d="M119.015 0.0507812H125.315L137.06 32.0008H130.67L127.7 24.0358H116.54L113.615 32.0008H107.225L119.015 0.0507812ZM126.575 19.6708L122.165 6.48578L117.575 19.6708H126.575Z" fill="#671414"/>
<path d="M285.716 63.2558C284.855 63.2558 284.129 63.0433 283.54 62.6183C282.951 62.1876 282.503 61.6068 282.197 60.8758C281.897 60.1391 281.746 59.3146 281.746 58.4023C281.746 57.4786 281.897 56.6513 282.197 55.9203C282.503 55.1893 282.951 54.6141 283.54 54.1948C284.135 53.7754 284.863 53.5658 285.724 53.5658C286.574 53.5658 287.305 53.7783 287.917 54.2033C288.535 54.6226 289.008 55.1978 289.337 55.9288C289.666 56.6598 289.83 57.4843 289.83 58.4023C289.83 59.3203 289.666 60.1448 289.337 60.8758C289.008 61.6068 288.535 62.1876 287.917 62.6183C287.305 63.0433 286.572 63.2558 285.716 63.2558ZM281.491 67.0808V53.8208H282.843V60.5783H283.013V67.0808H281.491ZM285.529 61.8703C286.135 61.8703 286.637 61.7173 287.033 61.4113C287.43 61.1053 287.728 60.6916 287.926 60.1703C288.124 59.6433 288.223 59.0539 288.223 58.4023C288.223 57.7563 288.124 57.1726 287.926 56.6513C287.733 56.13 287.433 55.7163 287.025 55.4103C286.623 55.1043 286.11 54.9513 285.486 54.9513C284.891 54.9513 284.398 55.0986 284.007 55.3933C283.616 55.6823 283.325 56.0874 283.132 56.6088C282.939 57.1244 282.843 57.7223 282.843 58.4023C282.843 59.0709 282.936 59.6688 283.123 60.1958C283.316 60.7171 283.611 61.1279 284.007 61.4283C284.404 61.7229 284.911 61.8703 285.529 61.8703Z" fill="black"/>
<path d="M274.332 63.0008V55.1978H271.136V53.8208H279.041V55.1978H275.845V63.0008H274.332Z" fill="black"/>
<path d="M260.816 63.0008V53.8208H262.329V57.6883H267.157V53.8208H268.67V63.0008H267.157V59.1248H262.329V63.0008H260.816Z" fill="black"/>
<path d="M253.908 63.2558C253.007 63.2558 252.22 63.0574 251.545 62.6608C250.877 62.2584 250.355 61.7003 249.981 60.9863C249.607 60.2666 249.42 59.428 249.42 58.4703C249.42 57.4673 249.605 56.6003 249.973 55.8693C250.341 55.1326 250.854 54.5659 251.511 54.1693C252.174 53.7669 252.951 53.5658 253.84 53.5658C254.764 53.5658 255.549 53.7783 256.195 54.2033C256.847 54.6283 257.334 55.2346 257.657 56.0223C257.986 56.8099 258.127 57.7478 258.082 58.8358H256.552V58.2918C256.535 57.1641 256.305 56.3226 255.863 55.7673C255.421 55.2063 254.764 54.9258 253.891 54.9258C252.956 54.9258 252.245 55.2261 251.758 55.8268C251.271 56.4274 251.027 57.2888 251.027 58.4108C251.027 59.4931 251.271 60.3318 251.758 60.9268C252.245 61.5218 252.939 61.8193 253.84 61.8193C254.447 61.8193 254.974 61.6805 255.421 61.4028C255.869 61.1251 256.22 60.7256 256.475 60.2043L257.929 60.7058C257.572 61.5161 257.034 62.1451 256.314 62.5928C255.6 63.0348 254.798 63.2558 253.908 63.2558ZM250.517 58.8358V57.6203H257.3V58.8358H250.517Z" fill="black"/>
<path d="M246.209 64.7008V63.0008H238.381V53.8208H239.894V61.5643H244.39V53.8208H245.903V61.6238H247.722V64.7008H246.209Z" fill="black"/>
<path d="M227.344 52.7498C226.919 52.7498 226.531 52.6449 226.179 52.4353C225.828 52.2256 225.547 51.9479 225.338 51.6023C225.128 51.2509 225.023 50.8599 225.023 50.4293H226.247C226.247 50.7296 226.355 50.9874 226.57 51.2028C226.786 51.4181 227.043 51.5258 227.344 51.5258C227.65 51.5258 227.908 51.4181 228.117 51.2028C228.333 50.9874 228.44 50.7296 228.44 50.4293H229.664C229.664 50.8599 229.559 51.2509 229.35 51.6023C229.146 51.9479 228.865 52.2256 228.508 52.4353C228.157 52.6449 227.769 52.7498 227.344 52.7498ZM230.905 53.8208V63.0008H229.443V56.2348L224.632 63.0008H223.383V53.8208H224.845V60.4933L229.664 53.8208H230.905Z" fill="black"/>
<path d="M220.161 53.8208V63.0008H218.699V56.2348L213.888 63.0008H212.638V53.8208H214.1V60.4933L218.92 53.8208H220.161Z" fill="black"/>
<path d="M203.122 63.0008L203.131 53.8208H204.661V58.2408L208.511 53.8208H210.475L206.42 58.4108L210.951 63.0008H208.834L204.661 58.5808V63.0008H203.122Z" fill="black"/>
<path d="M196.619 63.2558C195.689 63.2558 194.899 63.049 194.247 62.6353C193.601 62.216 193.108 61.6408 192.768 60.9098C192.428 60.1788 192.253 59.3458 192.241 58.4108C192.253 57.4531 192.431 56.6116 192.777 55.8863C193.128 55.1553 193.63 54.5858 194.281 54.1778C194.933 53.7698 195.718 53.5658 196.636 53.5658C197.605 53.5658 198.438 53.8038 199.135 54.2798C199.837 54.7558 200.308 55.4074 200.546 56.2348L199.05 56.6853C198.857 56.1526 198.543 55.7389 198.106 55.4443C197.676 55.1496 197.18 55.0023 196.619 55.0023C195.99 55.0023 195.471 55.1496 195.063 55.4443C194.655 55.7333 194.352 56.1356 194.154 56.6513C193.956 57.1613 193.854 57.7478 193.848 58.4108C193.859 59.4308 194.094 60.2553 194.553 60.8843C195.018 61.5076 195.706 61.8193 196.619 61.8193C197.219 61.8193 197.718 61.6833 198.115 61.4113C198.512 61.1336 198.812 60.7341 199.016 60.2128L200.546 60.6123C200.229 61.4679 199.733 62.1224 199.058 62.5758C198.384 63.0291 197.571 63.2558 196.619 63.2558Z" fill="black"/>
<path d="M185.835 63.2558C184.934 63.2558 184.147 63.0574 183.472 62.6608C182.804 62.2584 182.282 61.7003 181.908 60.9863C181.534 60.2666 181.347 59.428 181.347 58.4703C181.347 57.4673 181.532 56.6003 181.9 55.8693C182.268 55.1326 182.781 54.5659 183.438 54.1693C184.101 53.7669 184.878 53.5658 185.767 53.5658C186.691 53.5658 187.476 53.7783 188.122 54.2033C188.774 54.6283 189.261 55.2346 189.584 56.0223C189.913 56.8099 190.054 57.7478 190.009 58.8358H188.479V58.2918C188.462 57.1641 188.232 56.3226 187.79 55.7673C187.348 55.2063 186.691 54.9258 185.818 54.9258C184.883 54.9258 184.172 55.2261 183.685 55.8268C183.198 56.4274 182.954 57.2888 182.954 58.4108C182.954 59.4931 183.198 60.3318 183.685 60.9268C184.172 61.5218 184.866 61.8193 185.767 61.8193C186.374 61.8193 186.901 61.6805 187.348 61.4028C187.796 61.1251 188.147 60.7256 188.402 60.2043L189.856 60.7058C189.499 61.5161 188.961 62.1451 188.241 62.5928C187.527 63.0348 186.725 63.2558 185.835 63.2558ZM182.444 58.8358V57.6203H189.227V58.8358H182.444Z" fill="black"/>
<path d="M177.103 63.0008V59.6943C176.797 59.8473 176.426 59.9776 175.989 60.0853C175.559 60.1929 175.097 60.2468 174.604 60.2468C173.669 60.2468 172.915 60.0371 172.343 59.6178C171.77 59.1984 171.396 58.5949 171.221 57.8073C171.17 57.5693 171.133 57.3228 171.11 57.0678C171.093 56.8128 171.082 56.5804 171.076 56.3708C171.071 56.1611 171.068 56.0081 171.068 55.9118V53.8208H172.598V55.9118C172.598 56.0761 172.603 56.2801 172.615 56.5238C172.626 56.7618 172.654 56.9941 172.7 57.2208C172.813 57.7818 173.048 58.2039 173.405 58.4873C173.768 58.7706 174.278 58.9123 174.935 58.9123C175.377 58.9123 175.785 58.8556 176.159 58.7423C176.533 58.6289 176.848 58.4788 177.103 58.2918V53.8208H178.624V63.0008H177.103Z" fill="black"/>
<path d="M168.347 53.8208V63.0008H166.885V56.2348L162.074 63.0008H160.825V53.8208H162.287V60.4933L167.106 53.8208H168.347Z" fill="black"/>
<path d="M148.927 65.0408V61.7513C149.443 61.7513 149.811 61.5841 150.032 61.2498C150.253 60.9098 150.432 60.3516 150.568 59.5753C150.658 59.088 150.732 58.5666 150.789 58.0113C150.845 57.456 150.894 56.8383 150.933 56.1583C150.979 55.4726 151.021 54.6934 151.061 53.8208H157.385V61.7513H158.277V65.0408H156.832V63.0008H150.372V65.0408H148.927ZM151.256 61.7513H155.872V55.0703H152.429C152.412 55.4726 152.39 55.8948 152.361 56.3368C152.333 56.7731 152.299 57.2094 152.259 57.6458C152.225 58.0821 152.183 58.4958 152.132 58.8868C152.086 59.2721 152.033 59.6178 151.97 59.9238C151.897 60.3488 151.812 60.7086 151.715 61.0033C151.619 61.298 151.466 61.5473 151.256 61.7513Z" fill="black"/>
<path d="M146.377 53.8208V63.0008H144.915V56.2348L140.104 63.0008H138.854V53.8208H140.316V60.4933L145.136 53.8208H146.377Z" fill="black"/>
<path d="M132.035 63.2558C131.174 63.2558 130.449 63.0433 129.859 62.6183C129.27 62.1876 128.822 61.6068 128.516 60.8758C128.216 60.1391 128.066 59.3146 128.066 58.4023C128.066 57.4786 128.216 56.6513 128.516 55.9203C128.822 55.1893 129.27 54.6141 129.859 54.1948C130.454 53.7754 131.182 53.5658 132.044 53.5658C132.894 53.5658 133.625 53.7783 134.237 54.2033C134.854 54.6226 135.328 55.1978 135.656 55.9288C135.985 56.6598 136.149 57.4843 136.149 58.4023C136.149 59.3203 135.985 60.1448 135.656 60.8758C135.328 61.6068 134.854 62.1876 134.237 62.6183C133.625 63.0433 132.891 63.2558 132.035 63.2558ZM127.811 67.0808V53.8208H129.162V60.5783H129.332V67.0808H127.811ZM131.848 61.8703C132.455 61.8703 132.956 61.7173 133.353 61.4113C133.749 61.1053 134.047 60.6916 134.245 60.1703C134.444 59.6433 134.543 59.0539 134.543 58.4023C134.543 57.7563 134.444 57.1726 134.245 56.6513C134.053 56.13 133.752 55.7163 133.344 55.4103C132.942 55.1043 132.429 54.9513 131.806 54.9513C131.211 54.9513 130.718 55.0986 130.327 55.3933C129.936 55.6823 129.644 56.0874 129.451 56.6088C129.259 57.1244 129.162 57.7223 129.162 58.4023C129.162 59.0709 129.256 59.6688 129.443 60.1958C129.635 60.7171 129.93 61.1279 130.327 61.4283C130.723 61.7229 131.231 61.8703 131.848 61.8703Z" fill="black"/>
<path d="M120.679 63.2558C119.897 63.2558 119.205 63.0886 118.605 62.7543C118.01 62.4199 117.531 61.9468 117.168 61.3348C116.805 60.7228 116.579 60.0003 116.488 59.1673H114.695V63.0008H113.182V53.8208H114.695V57.6543H116.48C116.57 56.8043 116.8 56.0733 117.168 55.4613C117.536 54.8493 118.021 54.3818 118.622 54.0588C119.222 53.7301 119.914 53.5658 120.696 53.5658C121.608 53.5658 122.393 53.7726 123.05 54.1863C123.713 54.5999 124.22 55.1694 124.572 55.8948C124.929 56.6201 125.107 57.4531 125.107 58.3938C125.107 59.3515 124.926 60.1958 124.563 60.9268C124.206 61.6578 123.696 62.2301 123.033 62.6438C122.376 63.0518 121.591 63.2558 120.679 63.2558ZM120.653 61.8193C121.616 61.8193 122.33 61.5048 122.795 60.8758C123.265 60.2411 123.501 59.4166 123.501 58.4023C123.501 57.3596 123.263 56.5323 122.787 55.9203C122.316 55.3083 121.608 55.0023 120.662 55.0023C119.749 55.0023 119.055 55.3054 118.579 55.9118C118.103 56.5181 117.865 57.3455 117.865 58.3938C117.865 59.4308 118.1 60.2609 118.571 60.8843C119.047 61.5076 119.741 61.8193 120.653 61.8193Z" fill="black"/>
</svg>
