<svg width="25" height="25" viewBox="0 0 25 25" fill="none" xmlns="http://www.w3.org/2000/svg">
<g clip-path="url(#clip0_39_1025)">
<rect x="0.5" y="0.299805" width="24" height="24" rx="4" fill="#7B519D"/>
<g clip-path="url(#clip1_39_1025)">
<path fill-rule="evenodd" clip-rule="evenodd" d="M18.9341 15.8736C18.4501 15.4826 17.9321 15.1306 17.4231 14.7716C16.4071 14.0536 15.4781 13.9986 14.7201 15.1516C14.2941 15.7996 13.6991 15.8286 13.0761 15.5436C11.3581 14.7616 10.0321 13.5546 9.25508 11.8006C8.91108 11.0236 8.91508 10.3276 9.72008 9.77859C10.1451 9.48859 10.5741 9.14459 10.5401 8.51059C10.4951 7.68259 8.49708 4.91759 7.70808 4.62559C7.39042 4.5091 7.04174 4.5091 6.72408 4.62559C4.87308 5.24959 4.10608 6.77959 4.84008 8.59159C7.03008 13.9966 10.8831 17.7586 16.1891 20.0546C16.4911 20.1846 16.8271 20.2376 16.9971 20.2846C18.2051 20.2966 19.6201 19.1266 20.0291 17.9666C20.4221 16.8496 19.5921 16.4066 18.9341 15.8736ZM12.9851 5.17959C16.8641 5.77959 18.6531 7.63359 19.1471 11.5596C19.1921 11.9226 19.0571 12.4686 19.5731 12.4786C20.1111 12.4886 19.9811 11.9506 19.9861 11.5886C20.0311 7.88959 16.8231 4.46159 13.0981 4.33559C12.8171 4.37559 12.2351 4.14059 12.1981 4.77359C12.1741 5.20059 12.6641 5.13059 12.9851 5.17959Z" fill="white"/>
<path fill-rule="evenodd" clip-rule="evenodd" d="M13.7441 6.25677C13.3711 6.21177 12.8791 6.03477 12.7911 6.55577C12.7011 7.10177 13.2491 7.04577 13.6021 7.12577C15.9971 7.66377 16.8321 8.53977 17.2261 10.9278C17.2831 11.2768 17.1691 11.8178 17.7581 11.7278C18.1941 11.6618 18.0361 11.1978 18.0731 10.9258C18.0931 8.63277 16.1371 6.54577 13.7441 6.25677Z" fill="white"/>
<path fill-rule="evenodd" clip-rule="evenodd" d="M13.9643 8.13174C13.7153 8.13774 13.4713 8.16474 13.3793 8.43174C13.2423 8.83174 13.5313 8.92774 13.8253 8.97574C14.8083 9.13374 15.3253 9.71574 15.4233 10.7007C15.4503 10.9687 15.6183 11.1847 15.8753 11.1547C16.2313 11.1117 16.2643 10.7937 16.2533 10.4907C16.2703 9.38474 15.0263 8.10574 13.9643 8.13174Z" fill="white"/>
</g>
</g>
<defs>
<clipPath id="clip0_39_1025">
<rect x="0.5" y="0.299805" width="24" height="24" rx="4" fill="white"/>
</clipPath>
<clipPath id="clip1_39_1025">
<rect width="24" height="24" fill="white" transform="translate(0.5 0.299805)"/>
</clipPath>
</defs>
</svg>
